<?xml version="1.0" encoding="UTF-8"?>
<svg xmlns="http://www.w3.org/2000/svg" xmlns:xlink="http://www.w3.org/1999/xlink" viewBox="0 0 375 374.999991" version="1.2">
<defs>
<clipPath id="clip1">
  <path d="M 45 37.734375 L 65 37.734375 L 65 67 L 45 67 Z M 45 37.734375 "/>
</clipPath>
<clipPath id="clip2">
  <path d="M 310 37.734375 L 330 37.734375 L 330 67 L 310 67 Z M 310 37.734375 "/>
</clipPath>
<clipPath id="clip3">
  <path d="M 124.253906 61.011719 L 251.003906 61.011719 L 251.003906 187.761719 L 124.253906 187.761719 Z M 124.253906 61.011719 "/>
</clipPath>
</defs>
<g id="surface1">
<path style=" stroke:none;fill-rule:nonzero;fill:rgb(3.138733%,6.669617%,8.239746%);fill-opacity:1;" d="M 97.902344 73.902344 C 97.984375 73.917969 98.152344 73.972656 98.398438 74.171875 C 98.765625 74.460938 99.28125 75.097656 99.6875 76.183594 C 100.097656 77.261719 100.398438 78.777344 100.394531 80.730469 C 100.410156 86.070312 98.109375 94.65625 90.585938 106.199219 C 77.394531 126.464844 69.476562 144.617188 65.308594 156.191406 C 64.746094 157.75 65.554688 159.464844 67.109375 160.027344 C 68.660156 160.589844 70.378906 159.78125 70.9375 158.222656 C 74.960938 147.042969 82.703125 129.28125 95.597656 109.472656 C 103.527344 97.265625 106.363281 87.738281 106.382812 80.730469 C 106.378906 77.320312 105.699219 74.496094 104.464844 72.292969 C 103.839844 71.195312 103.074219 70.253906 102.164062 69.515625 C 101.25 68.773438 100.183594 68.238281 99.027344 68.015625 C 97.402344 67.707031 95.835938 68.773438 95.523438 70.394531 C 95.210938 72.023438 96.277344 73.589844 97.902344 73.902344 "/>
<path style=" stroke:none;fill-rule:nonzero;fill:rgb(3.138733%,6.669617%,8.239746%);fill-opacity:1;" d="M 58.285156 128.1875 C 65.773438 116.347656 76.570312 101.09375 85.070312 89.703125 C 86.0625 88.378906 85.789062 86.5 84.464844 85.507812 C 83.140625 84.515625 81.265625 84.792969 80.277344 86.117188 C 71.699219 97.613281 60.855469 112.921875 53.226562 124.980469 C 52.34375 126.378906 52.757812 128.230469 54.15625 129.117188 C 55.550781 130 57.402344 129.585938 58.285156 128.1875 "/>
<path style=" stroke:none;fill-rule:nonzero;fill:rgb(3.138733%,6.669617%,8.239746%);fill-opacity:1;" d="M 106.832031 115.234375 L 106.589844 114.523438 L 106.589844 115.273438 C 106.703125 115.273438 106.789062 115.25 106.832031 115.234375 L 106.589844 114.523438 L 106.589844 115.273438 L 106.589844 114.304688 L 106.050781 115.117188 C 106.152344 115.191406 106.398438 115.277344 106.589844 115.273438 L 106.589844 114.304688 L 106.050781 115.117188 L 106.320312 114.707031 L 105.976562 115.058594 L 106.050781 115.117188 L 106.320312 114.707031 L 105.976562 115.058594 L 106.023438 115.007812 L 105.96875 115.054688 L 105.976562 115.058594 L 106.023438 115.007812 L 105.96875 115.054688 C 105.984375 115.0625 106.140625 115.277344 106.269531 115.75 C 106.402344 116.222656 106.507812 116.9375 106.507812 117.878906 C 106.511719 119.578125 106.160156 122.007812 105.207031 125.101562 C 104.253906 128.199219 102.703125 131.964844 100.351562 136.398438 L 101.515625 137.015625 L 100.382812 136.34375 L 100.351562 136.398438 L 101.515625 137.015625 L 100.382812 136.34375 L 100.371094 136.359375 C 100.300781 136.476562 100.023438 136.882812 99.65625 137.390625 C 98.351562 139.222656 95.804688 142.664062 93.542969 145.898438 C 92.410156 147.519531 91.347656 149.085938 90.519531 150.4375 C 90.101562 151.109375 89.742188 151.730469 89.449219 152.3125 C 89.300781 152.605469 89.167969 152.890625 89.046875 153.199219 C 88.929688 153.511719 88.816406 153.835938 88.742188 154.339844 C 88.414062 156.828125 87.792969 160.78125 87.25 164.976562 C 86.710938 169.183594 86.242188 173.625 86.238281 177.316406 C 86.238281 177.96875 86.253906 178.601562 86.289062 179.222656 L 86.289062 179.21875 C 86.417969 181.40625 87.019531 183.714844 87.914062 186.21875 C 88.816406 188.71875 90.035156 191.402344 91.476562 194.222656 C 92.230469 195.691406 94.035156 196.277344 95.503906 195.519531 C 96.976562 194.765625 97.558594 192.960938 96.804688 191.488281 C 95.441406 188.828125 94.324219 186.347656 93.546875 184.179688 C 92.761719 182.023438 92.328125 180.164062 92.265625 178.882812 L 92.265625 178.875 C 92.238281 178.40625 92.226562 177.882812 92.226562 177.316406 C 92.222656 174.125 92.65625 169.832031 93.1875 165.746094 C 93.714844 161.644531 94.328125 157.746094 94.675781 155.125 L 93.191406 154.925781 L 94.625 155.367188 C 94.632812 155.347656 94.652344 155.28125 94.675781 155.125 L 93.191406 154.925781 L 94.625 155.367188 L 94.285156 155.265625 L 94.621094 155.378906 L 94.625 155.367188 L 94.285156 155.265625 L 94.621094 155.378906 C 94.617188 155.367188 94.816406 154.925781 95.128906 154.386719 C 95.679688 153.421875 96.585938 152.035156 97.617188 150.53125 C 99.164062 148.269531 101.011719 145.722656 102.523438 143.644531 C 103.277344 142.605469 103.949219 141.683594 104.46875 140.953125 C 104.730469 140.589844 104.953125 140.273438 105.136719 140.003906 C 105.226562 139.871094 105.308594 139.746094 105.390625 139.625 C 105.46875 139.5 105.539062 139.390625 105.636719 139.210938 C 108.132812 134.5 109.835938 130.402344 110.925781 126.867188 C 112.011719 123.335938 112.492188 120.367188 112.492188 117.878906 C 112.480469 115.640625 112.125 113.765625 111.230469 112.171875 C 110.777344 111.382812 110.164062 110.664062 109.359375 110.125 C 108.5625 109.585938 107.5625 109.273438 106.589844 109.277344 C 106 109.277344 105.429688 109.382812 104.902344 109.566406 C 103.335938 110.097656 102.5 111.796875 103.035156 113.367188 C 103.566406 114.933594 105.265625 115.769531 106.832031 115.234375 "/>
<path style=" stroke:none;fill-rule:nonzero;fill:rgb(3.138733%,6.669617%,8.239746%);fill-opacity:1;" d="M 73.070312 163.019531 C 74.691406 158.992188 76.398438 155.082031 77.824219 151.871094 C 78.535156 150.261719 79.175781 148.832031 79.699219 147.636719 C 80.222656 146.429688 80.628906 145.488281 80.90625 144.753906 C 80.914062 144.703125 81.140625 144.246094 81.515625 143.679688 C 82.179688 142.664062 83.292969 141.195312 84.664062 139.523438 C 88.789062 134.492188 95.234375 127.53125 100.082031 122.375 C 101.214844 121.171875 101.15625 119.273438 99.957031 118.140625 C 98.75 117.007812 96.855469 117.0625 95.726562 118.269531 C 92.003906 122.226562 87.355469 127.230469 83.445312 131.710938 C 81.488281 133.953125 79.71875 136.066406 78.316406 137.882812 C 77.617188 138.792969 77.011719 139.628906 76.507812 140.398438 C 76.003906 141.179688 75.601562 141.851562 75.292969 142.664062 C 75.117188 143.144531 74.726562 144.066406 74.21875 145.226562 C 72.683594 148.734375 70.011719 154.578125 67.515625 160.785156 C 66.902344 162.316406 67.644531 164.0625 69.179688 164.683594 C 70.710938 165.300781 72.453125 164.554688 73.070312 163.019531 "/>
<path style=" stroke:none;fill-rule:nonzero;fill:rgb(3.138733%,6.669617%,8.239746%);fill-opacity:1;" d="M 59.019531 44.289062 C 59.644531 44.375 60.1875 44.582031 60.738281 44.976562 C 61.554688 45.5625 62.421875 46.632812 63.105469 48.503906 C 63.785156 50.363281 64.242188 52.984375 64.242188 56.394531 C 64.242188 61.003906 63.410156 67.039062 61.371094 74.550781 C 55.601562 95.816406 53.617188 114.113281 52.769531 126.378906 C 52.617188 128.601562 52.535156 130.660156 52.535156 132.542969 C 52.535156 134.019531 52.585938 135.390625 52.695312 136.664062 L 52.691406 136.660156 C 52.808594 138.027344 53.101562 139.429688 53.507812 140.882812 C 53.953125 142.476562 55.605469 143.40625 57.195312 142.960938 C 58.785156 142.511719 59.714844 140.859375 59.269531 139.265625 C 58.933594 138.070312 58.726562 137.011719 58.65625 136.152344 C 58.566406 135.09375 58.519531 133.882812 58.519531 132.542969 C 58.519531 130.835938 58.59375 128.90625 58.742188 126.792969 L 58.742188 126.789062 C 59.570312 114.769531 61.511719 96.886719 67.144531 76.121094 C 69.285156 68.226562 70.222656 61.710938 70.226562 56.394531 C 70.214844 51.152344 69.332031 47.042969 67.570312 43.921875 C 66.683594 42.367188 65.5625 41.070312 64.234375 40.113281 C 62.902344 39.152344 61.371094 38.550781 59.804688 38.351562 C 58.164062 38.132812 56.660156 39.289062 56.445312 40.929688 C 56.230469 42.566406 57.382812 44.074219 59.019531 44.289062 "/>
<path style=" stroke:none;fill-rule:nonzero;fill:rgb(3.138733%,6.669617%,8.239746%);fill-opacity:1;" d="M 37.199219 105.917969 C 40.65625 92.472656 46.292969 76.191406 50.96875 63.886719 C 51.554688 62.339844 50.78125 60.609375 49.234375 60.023438 C 47.691406 59.433594 45.960938 60.210938 45.375 61.757812 C 40.648438 74.210938 34.960938 90.605469 31.40625 104.425781 C 30.992188 106.027344 31.953125 107.660156 33.554688 108.074219 C 35.15625 108.484375 36.785156 107.519531 37.199219 105.917969 "/>
<path style=" stroke:none;fill-rule:nonzero;fill:rgb(3.138733%,6.669617%,8.239746%);fill-opacity:1;" d="M 7.179688 57.324219 C 7.378906 57.101562 7.601562 56.933594 7.851562 56.820312 C 8.101562 56.703125 8.378906 56.632812 8.742188 56.628906 C 9.308594 56.632812 10.148438 56.816406 11.300781 57.585938 C 13.015625 58.722656 15.332031 61.222656 17.746094 65.765625 C 20.164062 70.304688 22.695312 76.847656 25.046875 85.9375 C 26.925781 93.175781 29.625 99.785156 31.429688 106.007812 C 33.960938 114.710938 36.0625 122.867188 37.835938 129.917969 C 38.238281 131.523438 39.863281 132.496094 41.464844 132.09375 C 43.070312 131.691406 44.039062 130.0625 43.640625 128.457031 C 41.859375 121.378906 39.738281 113.140625 37.175781 104.332031 C 35.234375 97.691406 32.578125 91.171875 30.839844 84.433594 C 27.578125 71.871094 23.960938 63.6875 20.277344 58.429688 C 18.429688 55.804688 16.558594 53.898438 14.625 52.601562 C 12.703125 51.308594 10.6875 50.636719 8.742188 50.636719 C 7.523438 50.636719 6.359375 50.90625 5.335938 51.378906 C 4.308594 51.859375 3.429688 52.535156 2.71875 53.328125 C 1.617188 54.558594 1.722656 56.457031 2.953125 57.558594 C 4.183594 58.660156 6.078125 58.558594 7.179688 57.324219 "/>
<path style=" stroke:none;fill-rule:nonzero;fill:rgb(3.138733%,6.669617%,8.239746%);fill-opacity:1;" d="M 83.09375 363.1875 C 89.671875 348.324219 92.242188 335 92.238281 323.121094 C 92.242188 307.761719 87.949219 294.882812 82.832031 284.191406 C 80.273438 278.84375 77.507812 274.03125 74.960938 269.710938 C 72.414062 265.390625 70.085938 261.554688 68.40625 258.226562 L 68.339844 258.101562 C 60.132812 243.613281 49.417969 229.191406 35.703125 209.167969 L 35.632812 209.074219 C 34.511719 207.582031 33.15625 205.023438 31.816406 201.855469 C 29.796875 197.089844 27.753906 190.929688 25.960938 184.460938 C 24.167969 177.992188 22.609375 171.210938 21.511719 165.160156 C 20.136719 157.578125 17.683594 141.59375 15.164062 124.265625 C 12.644531 106.933594 10.050781 88.21875 8.367188 75.089844 C 8.15625 73.449219 6.660156 72.289062 5.019531 72.5 C 3.378906 72.710938 2.222656 74.210938 2.433594 75.851562 C 4.121094 89.039062 6.71875 107.765625 9.242188 125.132812 C 11.769531 142.5 14.214844 158.46875 15.621094 166.230469 C 17.136719 174.566406 19.460938 184.117188 22.121094 192.585938 C 23.445312 196.816406 24.859375 200.777344 26.308594 204.195312 C 27.765625 207.621094 29.230469 210.488281 30.835938 212.65625 L 33.234375 210.867188 L 30.769531 212.5625 C 44.554688 232.675781 55.207031 247.042969 63.132812 261.054688 L 65.734375 259.578125 L 63.066406 260.929688 C 64.910156 264.578125 67.285156 268.476562 69.804688 272.757812 C 73.589844 279.171875 77.707031 286.4375 80.867188 294.757812 C 84.03125 303.082031 86.25 312.441406 86.253906 323.121094 C 86.25 334.132812 83.894531 346.574219 77.621094 360.761719 C 76.953125 362.273438 77.636719 364.046875 79.144531 364.714844 C 80.660156 365.382812 82.425781 364.699219 83.09375 363.1875 "/>
<path style=" stroke:none;fill-rule:nonzero;fill:rgb(3.138733%,6.669617%,8.239746%);fill-opacity:1;" d="M 116.332031 210.347656 C 123.753906 213.847656 129.601562 217.621094 134.207031 221.535156 C 141.109375 227.417969 145.226562 233.597656 147.691406 239.863281 C 150.152344 246.125 150.941406 252.511719 150.941406 258.757812 C 150.945312 266.628906 149.671875 274.199219 149.027344 280.839844 C 147.722656 294.332031 147.019531 311.949219 146.636719 328.160156 C 146.253906 344.367188 146.191406 359.144531 146.191406 366.867188 C 146.191406 370.425781 146.203125 372.484375 146.203125 372.488281 C 146.214844 374.148438 147.5625 375.476562 149.214844 375.46875 C 150.871094 375.457031 152.199219 374.109375 152.191406 372.453125 C 152.1875 372.449219 152.1875 371.945312 152.183594 370.988281 C 152.179688 370.035156 152.175781 368.640625 152.175781 366.867188 C 152.175781 359.175781 152.238281 344.4375 152.617188 328.304688 C 153 312.171875 153.707031 294.628906 154.980469 281.417969 C 155.585938 275.097656 156.921875 267.253906 156.925781 258.757812 C 156.925781 254.261719 156.546875 249.570312 155.460938 244.820312 C 153.839844 237.695312 150.59375 230.425781 144.773438 223.617188 C 138.957031 216.804688 130.613281 210.457031 118.882812 204.925781 C 117.390625 204.21875 115.605469 204.859375 114.902344 206.359375 C 114.199219 207.855469 114.839844 209.640625 116.332031 210.347656 "/>
<path style=" stroke:none;fill-rule:nonzero;fill:rgb(3.138733%,6.669617%,8.239746%);fill-opacity:1;" d="M 64.511719 214.304688 C 59.316406 202.128906 55.320312 193.816406 52.089844 186.972656 C 49.65625 181.828125 47.664062 177.53125 45.882812 173.019531 C 42.53125 164.519531 39.507812 156.675781 37.34375 150.070312 C 36.261719 146.769531 35.394531 143.777344 34.8125 141.195312 C 34.222656 138.621094 33.925781 136.441406 33.929688 134.855469 C 33.929688 134.03125 34.011719 133.371094 34.125 132.917969 C 34.242188 132.457031 34.382812 132.230469 34.460938 132.128906 L 34.464844 132.125 C 34.597656 131.96875 34.753906 131.835938 35.078125 131.703125 C 35.402344 131.574219 35.902344 131.46875 36.578125 131.46875 C 37.429688 131.46875 38.546875 131.640625 39.835938 132.046875 C 41.757812 132.652344 44.058594 133.773438 46.515625 135.449219 C 48.972656 137.121094 51.59375 139.34375 54.207031 142.125 C 58.140625 146.3125 62.058594 151.773438 65.449219 158.550781 C 66.171875 159.996094 66.871094 161.507812 67.542969 163.082031 C 67.730469 163.515625 67.898438 163.886719 68.039062 164.230469 L 68.039062 164.226562 C 73.824219 178.304688 83.269531 188.203125 92.304688 195.21875 C 97.527344 199.277344 102.625 202.386719 106.835938 204.800781 C 108.941406 206.011719 110.824219 207.042969 112.375 207.921875 C 113.921875 208.796875 115.144531 209.539062 115.835938 210.046875 C 116.152344 210.285156 116.496094 210.445312 116.878906 210.539062 L 116.882812 210.542969 C 118.484375 210.941406 120.109375 209.96875 120.511719 208.363281 C 120.910156 206.757812 119.9375 205.128906 118.335938 204.726562 L 118.332031 204.726562 L 117.605469 207.632812 L 119.378906 205.222656 C 118.277344 204.414062 116.933594 203.625 115.324219 202.710938 C 112.917969 201.34375 109.929688 199.722656 106.613281 197.722656 C 103.292969 195.71875 99.648438 193.339844 95.976562 190.488281 C 87.480469 183.886719 78.855469 174.792969 73.574219 161.949219 L 73.574219 161.945312 C 73.378906 161.480469 73.199219 161.078125 73.046875 160.71875 C 72.328125 159.042969 71.578125 157.421875 70.796875 155.863281 C 67.15625 148.589844 62.917969 142.652344 58.566406 138.019531 C 55.675781 134.941406 52.738281 132.4375 49.882812 130.492188 C 47.023438 128.546875 44.246094 127.160156 41.636719 126.332031 C 39.878906 125.78125 38.195312 125.476562 36.578125 125.472656 C 35.296875 125.476562 34.046875 125.667969 32.875 126.132812 C 31.703125 126.589844 30.613281 127.351562 29.800781 128.375 L 29.800781 128.371094 C 29.058594 129.296875 28.601562 130.355469 28.324219 131.441406 C 28.050781 132.53125 27.949219 133.664062 27.945312 134.855469 C 27.949219 137.140625 28.332031 139.679688 28.976562 142.527344 C 29.945312 146.789062 31.523438 151.746094 33.480469 157.257812 C 35.445312 162.769531 37.796875 168.824219 40.320312 175.222656 C 42.183594 179.949219 44.242188 184.378906 46.679688 189.535156 C 49.925781 196.402344 53.859375 204.59375 59.011719 216.660156 C 59.660156 218.183594 61.417969 218.890625 62.9375 218.238281 C 64.457031 217.585938 65.164062 215.828125 64.515625 214.304688 L 64.511719 214.304688 "/>
<path style=" stroke:none;fill-rule:nonzero;fill:rgb(3.138733%,6.669617%,8.239746%);fill-opacity:1;" d="M 37.59375 159.804688 L 37.980469 162.777344 C 38.140625 162.746094 40.835938 162.417969 43.804688 161.085938 C 45.289062 160.410156 46.875 159.480469 48.207031 158.027344 C 48.871094 157.296875 49.464844 156.433594 49.886719 155.429688 C 50.308594 154.421875 50.550781 153.285156 50.546875 152.09375 C 50.546875 150.855469 50.292969 149.578125 49.8125 148.28125 L 49.8125 148.277344 C 48.953125 145.992188 47.722656 143.480469 46.339844 140.976562 C 44.960938 138.472656 43.429688 135.992188 41.96875 133.832031 L 41.96875 133.828125 C 40.921875 132.289062 39.472656 131.222656 37.960938 130.554688 C 36.441406 129.890625 34.839844 129.59375 33.273438 129.589844 C 31.800781 129.59375 30.347656 129.851562 29 130.449219 C 28.324219 130.75 27.675781 131.140625 27.085938 131.65625 C 26.492188 132.167969 25.960938 132.808594 25.574219 133.570312 L 25.582031 133.558594 C 25.375 133.96875 25.289062 134.3125 25.238281 134.601562 C 25.191406 134.890625 25.175781 135.132812 25.175781 135.355469 C 25.179688 135.898438 25.25 136.339844 25.335938 136.8125 C 25.507812 137.6875 25.777344 138.636719 26.125 139.714844 C 26.730469 141.59375 27.570312 143.832031 28.5 146.167969 C 31.285156 153.167969 34.859375 161.027344 34.871094 161.050781 C 35.414062 162.242188 36.679688 162.945312 37.980469 162.777344 L 37.59375 159.804688 L 40.316406 158.5625 C 40.316406 158.5625 40.171875 158.25 39.917969 157.679688 C 39.023438 155.691406 36.777344 150.636719 34.773438 145.71875 C 33.769531 143.261719 32.828125 140.832031 32.152344 138.871094 C 31.816406 137.894531 31.546875 137.03125 31.375 136.378906 C 31.289062 136.054688 31.230469 135.777344 31.195312 135.589844 L 31.164062 135.375 L 31.160156 135.335938 L 30.847656 135.355469 L 31.160156 135.355469 L 31.160156 135.335938 L 30.847656 135.355469 L 31.160156 135.355469 L 29.625 135.355469 L 31.136719 135.613281 C 31.160156 135.46875 31.160156 135.390625 31.160156 135.355469 L 29.625 135.355469 L 31.136719 135.613281 L 28.796875 135.210938 L 30.902344 136.292969 C 31.0625 135.980469 31.109375 135.757812 31.136719 135.613281 L 28.796875 135.210938 L 30.902344 136.292969 L 30.910156 136.285156 L 31 136.1875 C 31.117188 136.082031 31.394531 135.914062 31.796875 135.789062 C 32.199219 135.660156 32.722656 135.582031 33.273438 135.582031 C 34.054688 135.578125 34.882812 135.746094 35.550781 136.042969 C 36.222656 136.339844 36.707031 136.734375 37.015625 137.191406 L 37.011719 137.191406 C 38.367188 139.195312 39.820312 141.546875 41.105469 143.875 C 42.390625 146.199219 43.511719 148.515625 44.207031 150.378906 L 44.203125 150.375 C 44.476562 151.109375 44.5625 151.667969 44.5625 152.09375 C 44.558594 152.507812 44.488281 152.8125 44.367188 153.105469 C 44.160156 153.613281 43.730469 154.136719 43.046875 154.648438 C 42.035156 155.410156 40.515625 156.023438 39.28125 156.371094 C 38.664062 156.550781 38.121094 156.667969 37.742188 156.742188 C 37.554688 156.78125 37.410156 156.804688 37.316406 156.816406 L 37.21875 156.832031 L 37.203125 156.835938 L 37.351562 157.949219 L 37.210938 156.835938 L 37.203125 156.835938 L 37.351562 157.949219 L 37.210938 156.835938 L 37.59375 159.804688 L 40.316406 158.5625 L 37.59375 159.804688 "/>
<path style=" stroke:none;fill-rule:nonzero;fill:rgb(3.138733%,6.669617%,8.239746%);fill-opacity:1;" d="M 5.398438 75.472656 L 5.074219 78.449219 C 5.160156 78.464844 5.496094 78.492188 6 78.492188 C 6.566406 78.492188 7.351562 78.457031 8.265625 78.273438 C 8.949219 78.136719 9.710938 77.917969 10.492188 77.550781 C 11.667969 77.007812 12.921875 76.09375 13.828125 74.695312 C 14.742188 73.300781 15.238281 71.511719 15.230469 69.507812 C 15.230469 69.117188 15.214844 68.71875 15.179688 68.304688 L 15.179688 68.296875 C 15.007812 66.320312 14.691406 64.496094 14.3125 62.683594 C 13.929688 60.871094 13.488281 59.066406 13.035156 57.078125 L 13.035156 57.082031 C 12.808594 56.0625 12.269531 55.164062 11.636719 54.519531 C 10.675781 53.542969 9.585938 53.046875 8.558594 52.734375 C 7.527344 52.425781 6.519531 52.3125 5.574219 52.308594 C 4.925781 52.3125 4.3125 52.363281 3.695312 52.496094 C 3.386719 52.5625 3.074219 52.648438 2.742188 52.78125 C 2.40625 52.917969 2.042969 53.089844 1.628906 53.421875 L 1.632812 53.421875 C 1.296875 53.695312 1.070312 53.980469 0.910156 54.230469 C 0.628906 54.675781 0.511719 55.027344 0.417969 55.339844 C 0.289062 55.808594 0.234375 56.207031 0.199219 56.609375 C 0.164062 57.015625 0.152344 57.425781 0.152344 57.859375 C 0.152344 59.351562 0.304688 61.15625 0.523438 63.109375 C 1.175781 68.941406 2.449219 75.972656 2.457031 76.007812 C 2.691406 77.316406 3.753906 78.308594 5.074219 78.449219 L 5.398438 75.472656 L 8.34375 74.941406 C 8.34375 74.941406 8.3125 74.753906 8.25 74.410156 C 8.039062 73.199219 7.5 70.078125 7.023438 66.730469 C 6.785156 65.058594 6.558594 63.328125 6.394531 61.765625 C 6.234375 60.203125 6.136719 58.796875 6.136719 57.859375 C 6.132812 57.398438 6.164062 57.046875 6.183594 56.957031 L 6.183594 56.953125 L 4.667969 56.566406 L 6.0625 57.261719 C 6.152344 57.078125 6.171875 56.988281 6.183594 56.953125 L 4.667969 56.566406 L 6.0625 57.261719 L 3.84375 56.15625 L 5.398438 58.078125 C 5.804688 57.742188 5.96875 57.441406 6.0625 57.261719 L 3.84375 56.15625 L 5.398438 58.078125 L 5.402344 58.074219 L 4.3125 56.730469 L 4.957031 58.347656 C 5.019531 58.320312 5.15625 58.269531 5.402344 58.074219 L 4.3125 56.730469 L 4.957031 58.347656 L 4.730469 57.78125 L 4.914062 58.363281 L 4.957031 58.347656 L 4.730469 57.78125 L 4.914062 58.363281 L 4.886719 58.277344 L 4.914062 58.363281 L 4.886719 58.277344 L 4.914062 58.363281 C 4.933594 58.351562 5.230469 58.300781 5.574219 58.300781 C 6.128906 58.292969 6.828125 58.433594 7.148438 58.585938 L 7.320312 58.679688 L 7.351562 58.703125 L 7.734375 58.285156 L 7.199219 58.40625 C 7.222656 58.550781 7.34375 58.703125 7.351562 58.703125 L 7.734375 58.285156 L 7.199219 58.40625 C 7.664062 60.457031 8.101562 62.242188 8.453125 63.917969 C 8.804688 65.59375 9.074219 67.15625 9.21875 68.816406 L 9.21875 68.808594 C 9.238281 69.0625 9.25 69.292969 9.25 69.507812 C 9.242188 70.472656 9.058594 70.984375 8.886719 71.304688 C 8.75 71.542969 8.605469 71.699219 8.414062 71.851562 C 8.132812 72.070312 7.714844 72.257812 7.246094 72.363281 C 6.785156 72.472656 6.300781 72.503906 6 72.5 C 5.878906 72.5 5.789062 72.5 5.738281 72.496094 L 5.699219 72.492188 L 5.59375 73.6875 L 5.726562 72.496094 L 5.699219 72.492188 L 5.59375 73.6875 L 5.726562 72.496094 L 5.398438 75.472656 L 8.34375 74.941406 L 5.398438 75.472656 "/>
<g clip-path="url(#clip1)" clip-rule="nonzero">
<path style=" stroke:none;fill-rule:nonzero;fill:rgb(3.138733%,6.669617%,8.239746%);fill-opacity:1;" d="M 48.398438 62.226562 L 46.90625 64.828125 C 47.015625 64.886719 47.636719 65.238281 48.613281 65.597656 C 49.59375 65.953125 50.933594 66.332031 52.539062 66.335938 C 53.265625 66.335938 54.050781 66.253906 54.855469 66.03125 C 56.066406 65.703125 57.324219 65.03125 58.363281 63.980469 C 59.410156 62.933594 60.226562 61.558594 60.792969 59.90625 C 61.394531 58.152344 62.113281 55.984375 62.753906 53.703125 C 63.394531 51.417969 63.96875 49.027344 64.273438 46.753906 C 64.332031 46.292969 64.359375 45.847656 64.359375 45.417969 C 64.363281 44.101562 64.070312 42.859375 63.535156 41.816406 C 63.140625 41.035156 62.621094 40.371094 62.050781 39.839844 C 61.199219 39.042969 60.257812 38.53125 59.375 38.210938 C 58.476562 37.890625 57.644531 37.746094 56.816406 37.742188 C 56.410156 37.742188 56.011719 37.769531 55.511719 37.902344 L 55.519531 37.902344 C 54.867188 38.085938 54.484375 38.367188 54.203125 38.59375 C 53.671875 39.046875 53.433594 39.414062 53.183594 39.785156 C 52.738281 40.480469 52.382812 41.230469 51.988281 42.121094 C 51.308594 43.667969 50.585938 45.605469 49.863281 47.6875 C 47.691406 53.910156 45.53125 61.363281 45.523438 61.390625 C 45.136719 62.722656 45.707031 64.136719 46.90625 64.828125 L 48.398438 62.226562 L 51.269531 63.0625 C 51.269531 63.0625 51.363281 62.746094 51.53125 62.179688 C 52.117188 60.191406 53.621094 55.1875 55.160156 50.683594 C 55.925781 48.4375 56.703125 46.304688 57.351562 44.796875 C 57.667969 44.050781 57.960938 43.453125 58.136719 43.15625 L 58.234375 43 L 58.246094 42.984375 L 57.816406 42.664062 L 58.21875 43.019531 L 58.246094 42.984375 L 57.816406 42.664062 L 58.21875 43.019531 L 56.875 41.839844 L 57.957031 43.261719 C 58.113281 43.136719 58.179688 43.058594 58.21875 43.019531 L 56.875 41.839844 L 57.957031 43.261719 L 56.414062 41.238281 L 57.074219 43.6875 C 57.539062 43.558594 57.796875 43.375 57.957031 43.261719 L 56.414062 41.238281 L 57.074219 43.6875 L 57.082031 43.683594 L 56.816406 42.707031 L 56.816406 43.734375 C 56.816406 43.730469 56.855469 43.742188 57.082031 43.683594 L 56.816406 42.707031 L 56.816406 43.734375 C 56.839844 43.730469 57.046875 43.75 57.257812 43.820312 C 57.582031 43.921875 57.894531 44.113281 58.054688 44.308594 C 58.140625 44.410156 58.207031 44.515625 58.265625 44.679688 C 58.324219 44.839844 58.375 45.066406 58.375 45.417969 C 58.375 45.582031 58.367188 45.761719 58.339844 45.964844 C 58.097656 47.792969 57.589844 49.964844 56.996094 52.078125 C 56.398438 54.191406 55.714844 56.257812 55.132812 57.957031 C 54.914062 58.597656 54.671875 59.050781 54.449219 59.359375 C 54.113281 59.828125 53.84375 60.011719 53.566406 60.144531 C 53.285156 60.273438 52.953125 60.34375 52.539062 60.34375 C 51.941406 60.351562 51.207031 60.171875 50.667969 59.96875 C 50.398438 59.871094 50.175781 59.769531 50.035156 59.703125 L 49.886719 59.628906 L 48.398438 62.226562 L 51.269531 63.0625 L 48.398438 62.226562 "/>
</g>
<path style=" stroke:none;fill-rule:nonzero;fill:rgb(3.138733%,6.669617%,8.239746%);fill-opacity:1;" d="M 82.675781 87.910156 L 80.261719 89.679688 C 80.359375 89.8125 80.984375 90.664062 82.121094 91.589844 C 82.695312 92.050781 83.402344 92.53125 84.273438 92.921875 C 85.144531 93.308594 86.195312 93.597656 87.371094 93.597656 C 88.550781 93.605469 89.832031 93.289062 91.011719 92.625 C 92.191406 91.964844 93.269531 90.992188 94.261719 89.730469 C 95.527344 88.113281 96.707031 86.234375 97.828125 84.277344 C 98.949219 82.320312 99.996094 80.292969 100.9375 78.417969 C 101.753906 76.808594 102.117188 75.179688 102.117188 73.6875 C 102.113281 71.75 101.523438 70.089844 100.6875 68.832031 C 100.261719 68.203125 99.777344 67.660156 99.1875 67.207031 C 98.894531 66.980469 98.566406 66.773438 98.1875 66.601562 C 97.800781 66.429688 97.355469 66.285156 96.796875 66.238281 L 96.785156 66.238281 L 96.5625 66.230469 C 95.902344 66.238281 95.46875 66.402344 95.140625 66.542969 C 94.515625 66.832031 94.183594 67.113281 93.832031 67.40625 C 93.210938 67.953125 92.640625 68.578125 92 69.335938 C 90.894531 70.65625 89.632812 72.34375 88.324219 74.164062 C 84.417969 79.621094 80.167969 86.273438 80.15625 86.296875 C 79.488281 87.335938 79.527344 88.679688 80.261719 89.679688 L 82.675781 87.910156 L 85.195312 89.527344 C 85.195312 89.527344 85.238281 89.457031 85.324219 89.320312 C 85.972656 88.316406 88.945312 83.714844 91.949219 79.410156 C 93.449219 77.265625 94.964844 75.183594 96.15625 73.710938 C 96.746094 72.980469 97.265625 72.398438 97.582031 72.089844 L 97.765625 71.921875 L 97.808594 71.886719 L 97.050781 70.84375 L 97.589844 72.007812 C 97.753906 71.929688 97.800781 71.890625 97.808594 71.886719 L 97.050781 70.84375 L 97.589844 72.007812 L 96.5625 69.777344 L 96.5625 72.226562 C 97.132812 72.214844 97.425781 72.078125 97.589844 72.007812 L 96.5625 69.777344 L 96.5625 72.226562 L 96.5625 69.527344 L 96.378906 72.21875 L 96.5625 72.226562 L 96.5625 69.527344 L 96.378906 72.21875 L 96.371094 72.21875 L 96.503906 70.339844 L 95.726562 72.066406 C 95.847656 72.117188 96.042969 72.191406 96.371094 72.21875 L 96.503906 70.339844 L 95.726562 72.066406 L 96.121094 71.1875 L 95.554688 71.96875 C 95.574219 71.980469 95.625 72.015625 95.726562 72.066406 L 96.121094 71.1875 L 95.554688 71.96875 L 95.671875 71.804688 L 95.542969 71.957031 L 95.554688 71.96875 L 95.671875 71.804688 L 95.542969 71.957031 C 95.554688 71.960938 95.746094 72.164062 95.882812 72.46875 C 96.019531 72.78125 96.128906 73.1875 96.128906 73.6875 C 96.128906 74.230469 96.011719 74.890625 95.59375 75.726562 L 95.59375 75.722656 C 94.675781 77.550781 93.667969 79.488281 92.636719 81.296875 C 91.605469 83.101562 90.539062 84.773438 89.554688 86.03125 C 88.945312 86.808594 88.441406 87.199219 88.097656 87.390625 C 87.75 87.578125 87.5625 87.601562 87.371094 87.605469 C 87.1875 87.605469 86.96875 87.5625 86.699219 87.441406 C 86.304688 87.273438 85.835938 86.917969 85.519531 86.605469 C 85.359375 86.449219 85.230469 86.308594 85.152344 86.21875 L 85.078125 86.125 L 85.074219 86.117188 L 83.753906 87.117188 L 85.089844 86.140625 L 85.074219 86.117188 L 83.753906 87.117188 L 85.089844 86.140625 L 82.675781 87.910156 L 85.195312 89.527344 L 82.675781 87.910156 "/>
<path style=" stroke:none;fill-rule:nonzero;fill:rgb(3.138733%,6.669617%,8.239746%);fill-opacity:1;" d="M 97.902344 120.324219 L 100.148438 122.300781 L 107.457031 113.988281 L 105.210938 112.011719 L 104.300781 114.863281 L 104.628906 113.835938 L 104.132812 114.800781 C 104.140625 114.804688 104.175781 114.824219 104.300781 114.863281 L 104.628906 113.835938 L 104.132812 114.800781 L 104.136719 114.796875 L 104.132812 114.800781 L 104.136719 114.796875 L 104.132812 114.800781 L 104.136719 114.804688 L 104.265625 114.664062 L 104.09375 114.742188 L 104.136719 114.804688 L 104.265625 114.664062 L 104.09375 114.742188 L 104.238281 114.675781 L 104.089844 114.726562 L 104.09375 114.742188 L 104.238281 114.675781 L 104.089844 114.726562 L 104.113281 114.71875 L 104.089844 114.726562 L 104.113281 114.71875 L 104.089844 114.726562 L 104.097656 114.832031 C 104.097656 114.960938 104.066406 115.265625 103.867188 115.78125 C 103.671875 116.296875 103.300781 117.015625 102.671875 117.917969 C 102.035156 118.832031 101.515625 119.296875 101.242188 119.484375 C 101.101562 119.578125 101.027344 119.605469 101.003906 119.613281 L 101.007812 119.628906 L 101.007812 119.613281 L 101.003906 119.613281 L 101.007812 119.628906 L 101.007812 119.613281 L 101.058594 119.925781 L 101.058594 119.609375 L 101.007812 119.613281 L 101.058594 119.925781 L 101.058594 119.609375 L 101.058594 119.988281 L 101.160156 119.621094 L 101.058594 119.609375 L 101.058594 119.988281 L 101.160156 119.621094 L 101.113281 119.792969 L 101.179688 119.628906 L 101.160156 119.621094 L 101.113281 119.792969 L 101.179688 119.628906 L 101.148438 119.613281 C 101.070312 119.570312 100.859375 119.375 100.726562 119.1875 L 100.570312 118.960938 L 100.546875 118.921875 L 99.476562 119.515625 L 100.566406 118.957031 L 100.546875 118.921875 L 99.476562 119.515625 L 100.566406 118.957031 L 97.902344 120.324219 L 100.148438 122.300781 L 97.902344 120.324219 L 95.238281 121.6875 C 95.324219 121.839844 95.71875 122.621094 96.5625 123.527344 C 96.992188 123.976562 97.542969 124.464844 98.285156 124.875 C 99.023438 125.28125 99.984375 125.605469 101.058594 125.601562 C 102.269531 125.609375 103.527344 125.179688 104.597656 124.445312 C 105.683594 123.703125 106.640625 122.6875 107.578125 121.351562 L 107.578125 121.347656 C 108.421875 120.136719 109.035156 119.015625 109.449219 117.945312 C 109.863281 116.871094 110.082031 115.832031 110.082031 114.832031 C 110.082031 113.851562 109.863281 112.921875 109.492188 112.15625 C 108.941406 111 108.121094 110.265625 107.472656 109.832031 C 106.820312 109.390625 106.308594 109.214844 106.117188 109.15625 C 104.984375 108.792969 103.75 109.136719 102.964844 110.03125 L 95.660156 118.34375 C 94.847656 119.265625 94.679688 120.59375 95.238281 121.6875 L 97.902344 120.324219 "/>
<path style=" stroke:none;fill-rule:nonzero;fill:rgb(3.138733%,6.669617%,8.239746%);fill-opacity:1;" d="M 276 68.015625 C 274.839844 68.238281 273.773438 68.773438 272.859375 69.511719 C 271.488281 70.625 270.453125 72.179688 269.738281 74.0625 C 269.027344 75.945312 268.640625 78.171875 268.640625 80.730469 C 268.65625 87.734375 271.488281 97.265625 279.425781 109.472656 C 292.320312 129.28125 300.0625 147.042969 304.085938 158.222656 C 304.644531 159.78125 306.359375 160.589844 307.914062 160.027344 C 309.46875 159.46875 310.273438 157.75 309.714844 156.191406 C 305.550781 144.617188 297.625 126.464844 284.441406 106.199219 C 276.910156 94.65625 274.613281 86.070312 274.625 80.730469 C 274.621094 78.125 275.164062 76.300781 275.769531 75.242188 C 276.070312 74.710938 276.378906 74.371094 276.621094 74.171875 C 276.871094 73.972656 277.035156 73.917969 277.121094 73.902344 C 278.742188 73.589844 279.808594 72.023438 279.5 70.394531 C 279.1875 68.773438 277.621094 67.707031 276 68.015625 "/>
<path style=" stroke:none;fill-rule:nonzero;fill:rgb(3.138733%,6.669617%,8.239746%);fill-opacity:1;" d="M 321.800781 124.980469 C 314.167969 112.921875 303.328125 97.617188 294.75 86.113281 C 293.761719 84.789062 291.886719 84.515625 290.5625 85.507812 C 289.238281 86.5 288.964844 88.375 289.957031 89.703125 C 298.457031 101.09375 309.253906 116.34375 316.742188 128.1875 C 317.628906 129.582031 319.476562 130 320.871094 129.117188 C 322.269531 128.226562 322.683594 126.378906 321.800781 124.980469 "/>
<path style=" stroke:none;fill-rule:nonzero;fill:rgb(3.138733%,6.669617%,8.239746%);fill-opacity:1;" d="M 270.121094 109.5625 C 269.59375 109.382812 269.023438 109.277344 268.4375 109.277344 C 267.460938 109.273438 266.460938 109.585938 265.664062 110.125 C 265.058594 110.523438 264.5625 111.035156 264.164062 111.59375 C 263.566406 112.4375 263.171875 113.390625 262.914062 114.433594 C 262.652344 115.472656 262.53125 116.617188 262.527344 117.878906 C 262.53125 120.367188 263.011719 123.335938 264.097656 126.867188 C 265.1875 130.402344 266.890625 134.5 269.390625 139.210938 C 269.46875 139.355469 269.527344 139.449219 269.585938 139.550781 C 269.820312 139.914062 270.105469 140.324219 270.503906 140.878906 C 271.867188 142.792969 274.378906 146.1875 276.578125 149.335938 C 277.675781 150.902344 278.695312 152.410156 279.414062 153.582031 C 279.777344 154.167969 280.0625 154.671875 280.234375 155.011719 C 280.320312 155.183594 280.375 155.3125 280.394531 155.359375 L 280.402344 155.378906 L 281.65625 154.949219 L 280.351562 155.121094 C 280.378906 155.320312 280.402344 155.375 280.402344 155.378906 L 281.65625 154.949219 L 280.351562 155.121094 L 280.351562 155.125 C 280.695312 157.746094 281.308594 161.644531 281.835938 165.742188 C 282.367188 169.828125 282.800781 174.125 282.796875 177.3125 C 282.796875 177.878906 282.785156 178.40625 282.761719 178.890625 L 282.761719 178.882812 C 282.691406 180.164062 282.261719 182.023438 281.480469 184.179688 C 280.699219 186.347656 279.582031 188.828125 278.222656 191.488281 C 277.46875 192.960938 278.046875 194.765625 279.519531 195.519531 C 280.992188 196.277344 282.792969 195.691406 283.546875 194.21875 C 284.988281 191.402344 286.207031 188.71875 287.109375 186.21875 C 288.003906 183.714844 288.609375 181.40625 288.734375 179.21875 L 288.734375 179.210938 C 288.765625 178.601562 288.78125 177.96875 288.78125 177.3125 C 288.777344 173.621094 288.3125 169.183594 287.773438 164.976562 C 287.234375 160.78125 286.609375 156.828125 286.28125 154.335938 L 286.28125 154.339844 C 286.195312 153.75 286.054688 153.398438 285.914062 153.035156 C 285.636719 152.378906 285.292969 151.753906 284.871094 151.039062 C 284.136719 149.796875 283.167969 148.335938 282.101562 146.789062 C 280.503906 144.472656 278.691406 141.976562 277.230469 139.964844 C 276.5 138.960938 275.859375 138.078125 275.382812 137.414062 C 275.148438 137.082031 274.949219 136.804688 274.820312 136.609375 L 274.664062 136.382812 L 274.640625 136.339844 L 273.644531 136.941406 L 274.671875 136.394531 L 274.640625 136.339844 L 273.644531 136.941406 L 274.671875 136.394531 L 274.671875 136.398438 C 272.324219 131.964844 270.769531 128.199219 269.816406 125.101562 C 268.859375 122.007812 268.511719 119.578125 268.511719 117.878906 C 268.503906 116.34375 268.816406 115.417969 268.984375 115.152344 L 269.050781 115.054688 L 268.640625 114.683594 L 268.871094 115.175781 C 268.992188 115.117188 269.050781 115.054688 269.050781 115.054688 L 268.640625 114.683594 L 268.871094 115.175781 L 268.4375 114.261719 L 268.4375 115.273438 C 268.574219 115.273438 268.75 115.234375 268.871094 115.175781 L 268.4375 114.261719 L 268.4375 115.273438 L 268.4375 114.53125 L 268.195312 115.238281 C 268.234375 115.25 268.320312 115.273438 268.4375 115.273438 L 268.4375 114.53125 L 268.195312 115.238281 C 269.757812 115.769531 271.460938 114.933594 271.992188 113.363281 C 272.523438 111.796875 271.6875 110.09375 270.121094 109.5625 "/>
<path style=" stroke:none;fill-rule:nonzero;fill:rgb(3.138733%,6.669617%,8.239746%);fill-opacity:1;" d="M 307.503906 160.785156 C 305.84375 156.644531 304.105469 152.671875 302.671875 149.441406 C 301.957031 147.824219 301.320312 146.394531 300.808594 145.226562 C 300.296875 144.066406 299.910156 143.144531 299.734375 142.664062 C 299.421875 141.851562 299.019531 141.179688 298.515625 140.398438 C 297.640625 139.054688 296.433594 137.488281 294.984375 135.722656 C 290.660156 130.449219 284.183594 123.464844 279.300781 118.269531 C 278.167969 117.0625 276.273438 117.007812 275.070312 118.140625 C 273.867188 119.273438 273.808594 121.171875 274.945312 122.375 C 278.640625 126.308594 283.253906 131.277344 287.074219 135.652344 C 288.980469 137.84375 290.691406 139.882812 291.964844 141.539062 C 292.601562 142.367188 293.132812 143.101562 293.507812 143.679688 C 293.890625 144.246094 294.113281 144.703125 294.121094 144.753906 C 294.394531 145.488281 294.800781 146.429688 295.328125 147.632812 C 296.894531 151.214844 299.527344 156.972656 301.953125 163.019531 C 302.570312 164.554688 304.3125 165.300781 305.847656 164.683594 C 307.378906 164.0625 308.121094 162.320312 307.503906 160.785156 "/>
<path style=" stroke:none;fill-rule:nonzero;fill:rgb(3.138733%,6.669617%,8.239746%);fill-opacity:1;" d="M 315.222656 38.351562 C 313.652344 38.550781 312.117188 39.152344 310.792969 40.113281 C 308.789062 41.550781 307.28125 43.734375 306.292969 46.449219 C 305.308594 49.171875 304.800781 52.464844 304.796875 56.394531 C 304.800781 61.714844 305.734375 68.226562 307.878906 76.121094 C 313.511719 96.886719 315.453125 114.769531 316.285156 126.789062 C 316.429688 128.90625 316.5 130.828125 316.5 132.539062 C 316.5 133.882812 316.457031 135.089844 316.371094 136.15625 L 316.371094 136.152344 C 316.296875 137.011719 316.089844 138.070312 315.753906 139.265625 C 315.308594 140.855469 316.234375 142.511719 317.824219 142.957031 C 319.417969 143.410156 321.066406 142.480469 321.515625 140.886719 C 321.925781 139.429688 322.214844 138.023438 322.332031 136.660156 L 322.332031 136.65625 C 322.4375 135.390625 322.488281 134.015625 322.488281 132.539062 C 322.488281 130.65625 322.40625 128.601562 322.253906 126.378906 C 321.410156 114.113281 319.421875 95.816406 313.652344 74.550781 C 311.613281 67.039062 310.777344 61.003906 310.78125 56.394531 C 310.777344 51.847656 311.605469 48.714844 312.65625 46.890625 C 313.179688 45.96875 313.738281 45.371094 314.285156 44.976562 C 314.835938 44.582031 315.378906 44.375 316.003906 44.289062 C 317.640625 44.074219 318.792969 42.566406 318.578125 40.929688 C 318.363281 39.289062 316.859375 38.132812 315.222656 38.351562 "/>
<path style=" stroke:none;fill-rule:nonzero;fill:rgb(3.138733%,6.669617%,8.239746%);fill-opacity:1;" d="M 343.617188 104.425781 C 340.0625 90.605469 334.378906 74.210938 329.648438 61.757812 C 329.0625 60.210938 327.332031 59.433594 325.789062 60.023438 C 324.242188 60.613281 323.46875 62.34375 324.058594 63.890625 C 328.730469 76.191406 334.367188 92.472656 337.824219 105.917969 C 338.234375 107.523438 339.867188 108.484375 341.46875 108.074219 C 343.070312 107.660156 344.03125 106.027344 343.621094 104.425781 L 343.617188 104.425781 "/>
<path style=" stroke:none;fill-rule:nonzero;fill:rgb(3.138733%,6.669617%,8.239746%);fill-opacity:1;" d="M 372.304688 53.328125 C 371.59375 52.539062 370.714844 51.859375 369.683594 51.382812 C 368.664062 50.90625 367.5 50.640625 366.28125 50.640625 C 364.335938 50.640625 362.320312 51.3125 360.394531 52.605469 C 357.503906 54.558594 354.726562 57.84375 351.996094 62.949219 C 349.277344 68.054688 346.625 75.015625 344.183594 84.4375 C 342.445312 91.175781 339.789062 97.695312 337.847656 104.335938 C 335.285156 113.144531 333.164062 121.378906 331.386719 128.460938 C 330.980469 130.066406 331.953125 131.695312 333.558594 132.09375 C 335.160156 132.5 336.789062 131.527344 337.1875 129.921875 C 338.960938 122.871094 341.0625 114.714844 343.59375 106.011719 C 345.398438 99.789062 348.097656 93.179688 349.980469 85.941406 C 353.109375 73.820312 356.578125 66.226562 359.640625 61.878906 C 361.164062 59.703125 362.578125 58.347656 363.722656 57.585938 C 364.875 56.820312 365.710938 56.632812 366.28125 56.632812 C 366.644531 56.632812 366.917969 56.703125 367.171875 56.820312 C 367.417969 56.9375 367.648438 57.105469 367.847656 57.328125 C 368.945312 58.558594 370.839844 58.664062 372.070312 57.5625 C 373.300781 56.457031 373.40625 54.5625 372.304688 53.328125 "/>
<path style=" stroke:none;fill-rule:nonzero;fill:rgb(3.138733%,6.669617%,8.239746%);fill-opacity:1;" d="M 297.402344 360.765625 C 291.128906 346.574219 288.769531 334.136719 288.769531 323.121094 C 288.769531 308.890625 292.710938 296.976562 297.585938 286.785156 C 300.023438 281.691406 302.695312 277.035156 305.214844 272.757812 C 307.738281 268.476562 310.113281 264.578125 311.960938 260.933594 L 309.289062 259.578125 L 311.894531 261.054688 C 319.816406 247.042969 330.464844 232.675781 344.257812 212.5625 L 341.789062 210.867188 L 344.191406 212.660156 C 345.792969 210.488281 347.257812 207.621094 348.714844 204.199219 C 350.886719 199.070312 352.980469 192.71875 354.828125 186.070312 C 356.671875 179.417969 358.265625 172.484375 359.398438 166.230469 C 360.808594 158.46875 363.253906 142.503906 365.78125 125.132812 C 368.304688 107.769531 370.902344 89.042969 372.59375 75.851562 C 372.800781 74.214844 371.644531 72.710938 370.007812 72.5 C 368.367188 72.289062 366.867188 73.453125 366.65625 75.09375 C 364.972656 88.222656 362.378906 106.933594 359.859375 124.269531 C 357.339844 141.59375 354.886719 157.578125 353.511719 165.164062 C 352.046875 173.226562 349.765625 182.601562 347.191406 190.789062 C 345.910156 194.882812 344.554688 198.679688 343.207031 201.855469 C 341.871094 205.027344 340.511719 207.582031 339.390625 209.074219 L 339.320312 209.171875 C 325.605469 229.191406 314.894531 243.613281 306.6875 258.101562 L 306.621094 258.226562 C 304.9375 261.554688 302.609375 265.390625 300.0625 269.710938 C 296.242188 276.195312 291.929688 283.777344 288.558594 292.625 C 285.195312 301.472656 282.78125 311.605469 282.78125 323.121094 C 282.78125 335 285.351562 348.324219 291.929688 363.1875 C 292.601562 364.703125 294.367188 365.382812 295.878906 364.714844 C 297.390625 364.046875 298.070312 362.273438 297.402344 360.765625 "/>
<path style=" stroke:none;fill-rule:nonzero;fill:rgb(3.138733%,6.669617%,8.239746%);fill-opacity:1;" d="M 256.140625 204.925781 C 248.320312 208.617188 242.007812 212.660156 236.941406 216.972656 C 229.34375 223.429688 224.566406 230.511719 221.761719 237.671875 C 218.949219 244.828125 218.09375 252.015625 218.097656 258.757812 C 218.101562 267.253906 219.4375 275.097656 220.042969 281.417969 C 221.320312 294.628906 222.027344 312.175781 222.40625 328.304688 C 222.789062 344.441406 222.847656 359.179688 222.847656 366.871094 C 222.847656 368.640625 222.84375 370.039062 222.84375 370.992188 C 222.839844 371.945312 222.835938 372.453125 222.835938 372.453125 C 222.828125 374.109375 224.15625 375.457031 225.808594 375.46875 C 227.460938 375.476562 228.808594 374.144531 228.820312 372.488281 C 228.820312 372.484375 228.832031 370.425781 228.832031 366.871094 C 228.832031 359.152344 228.773438 344.371094 228.386719 328.164062 C 228.007812 311.953125 227.300781 294.332031 225.996094 280.839844 C 225.351562 274.199219 224.074219 266.628906 224.078125 258.757812 C 224.078125 254.601562 224.433594 250.367188 225.394531 246.15625 C 226.84375 239.84375 229.636719 233.570312 234.800781 227.511719 C 239.96875 221.457031 247.558594 215.597656 258.691406 210.347656 C 260.183594 209.640625 260.828125 207.855469 260.125 206.359375 C 259.417969 204.859375 257.636719 204.21875 256.140625 204.925781 "/>
<path style=" stroke:none;fill-rule:nonzero;fill:rgb(3.138733%,6.669617%,8.239746%);fill-opacity:1;" d="M 316.015625 216.660156 C 321.164062 204.59375 325.101562 196.402344 328.347656 189.535156 C 330.785156 184.375 332.84375 179.949219 334.707031 175.222656 C 338.070312 166.6875 341.128906 158.769531 343.367188 151.9375 C 344.484375 148.515625 345.402344 145.367188 346.046875 142.523438 C 346.691406 139.671875 347.074219 137.140625 347.078125 134.855469 C 347.078125 133.660156 346.972656 132.527344 346.699219 131.441406 C 346.421875 130.355469 345.96875 129.296875 345.226562 128.375 L 345.226562 128.371094 C 344.410156 127.351562 343.320312 126.589844 342.152344 126.132812 C 340.976562 125.667969 339.726562 125.472656 338.449219 125.472656 C 336.824219 125.476562 335.144531 125.777344 333.390625 126.332031 C 330.777344 127.15625 328.007812 128.546875 325.144531 130.492188 C 322.289062 132.4375 319.347656 134.941406 316.460938 138.019531 C 312.109375 142.652344 307.871094 148.585938 304.230469 155.863281 L 304.226562 155.867188 C 303.449219 157.421875 302.699219 159.042969 301.980469 160.71875 L 301.976562 160.726562 C 301.828125 161.078125 301.648438 161.476562 301.453125 161.945312 L 301.453125 161.949219 C 296.171875 174.792969 287.546875 183.886719 279.050781 190.484375 C 274.152344 194.289062 269.308594 197.25 265.214844 199.597656 C 263.164062 200.773438 261.304688 201.796875 259.699219 202.710938 C 258.089844 203.625 256.75 204.414062 255.648438 205.21875 L 257.417969 207.632812 L 256.082031 204.953125 C 254.601562 205.695312 254 207.496094 254.742188 208.972656 C 255.480469 210.457031 257.277344 211.054688 258.753906 210.316406 L 258.757812 210.316406 C 258.914062 210.234375 259.050781 210.152344 259.191406 210.046875 C 259.878906 209.535156 261.109375 208.796875 262.652344 207.921875 C 264.976562 206.601562 268.050781 204.9375 271.503906 202.855469 C 274.960938 200.769531 278.804688 198.261719 282.722656 195.21875 C 291.757812 188.203125 301.203125 178.304688 306.988281 164.226562 L 306.984375 164.230469 C 307.125 163.886719 307.296875 163.515625 307.484375 163.074219 L 307.480469 163.082031 C 308.15625 161.507812 308.855469 159.992188 309.578125 158.546875 C 312.96875 151.773438 316.890625 146.308594 320.820312 142.125 C 323.433594 139.339844 326.050781 137.121094 328.511719 135.449219 C 330.96875 133.773438 333.265625 132.652344 335.191406 132.046875 C 336.480469 131.640625 337.597656 131.464844 338.449219 131.464844 C 339.125 131.464844 339.621094 131.574219 339.945312 131.703125 C 340.273438 131.835938 340.429688 131.96875 340.5625 132.125 C 340.640625 132.222656 340.78125 132.457031 340.898438 132.914062 C 341.015625 133.371094 341.09375 134.03125 341.09375 134.855469 C 341.097656 136.441406 340.796875 138.617188 340.210938 141.195312 C 339.335938 145.066406 337.824219 149.855469 335.90625 155.242188 C 333.988281 160.636719 331.652344 166.640625 329.140625 173.019531 C 327.363281 177.53125 325.367188 181.828125 322.9375 186.96875 C 319.703125 193.8125 315.707031 202.128906 310.511719 214.304688 C 309.863281 215.828125 310.570312 217.585938 312.089844 218.238281 C 313.609375 218.886719 315.367188 218.179688 316.015625 216.660156 "/>
<path style=" stroke:none;fill-rule:nonzero;fill:rgb(3.138733%,6.669617%,8.239746%);fill-opacity:1;" d="M 337.429688 159.804688 L 337.816406 156.835938 L 337.804688 156.914062 L 337.820312 156.835938 L 337.816406 156.835938 L 337.804688 156.914062 L 337.820312 156.835938 C 337.691406 156.824219 335.421875 156.460938 333.496094 155.539062 C 332.53125 155.085938 331.683594 154.503906 331.183594 153.929688 C 330.933594 153.640625 330.757812 153.363281 330.648438 153.078125 C 330.53125 152.792969 330.464844 152.492188 330.464844 152.09375 C 330.464844 151.664062 330.542969 151.109375 330.816406 150.382812 L 330.820312 150.382812 C 331.511719 148.519531 332.636719 146.199219 333.921875 143.875 C 335.203125 141.546875 336.65625 139.191406 338.011719 137.191406 C 338.316406 136.738281 338.804688 136.335938 339.476562 136.042969 C 340.140625 135.746094 340.96875 135.582031 341.75 135.582031 C 342.484375 135.578125 343.164062 135.730469 343.585938 135.925781 C 343.796875 136.019531 343.945312 136.117188 344.023438 136.1875 L 344.117188 136.289062 L 344.113281 136.285156 L 346.226562 135.207031 L 343.882812 135.597656 C 343.910156 135.742188 343.957031 135.964844 344.113281 136.285156 L 346.226562 135.207031 L 343.882812 135.597656 L 345.355469 135.355469 L 343.863281 135.355469 C 343.863281 135.382812 343.863281 135.457031 343.882812 135.597656 L 345.355469 135.355469 L 343.863281 135.355469 L 344.378906 135.355469 L 343.863281 135.335938 L 343.863281 135.355469 L 344.378906 135.355469 L 343.863281 135.335938 L 343.863281 135.359375 C 343.851562 135.53125 343.710938 136.230469 343.445312 137.089844 C 342.992188 138.621094 342.207031 140.785156 341.296875 143.105469 C 339.929688 146.59375 338.28125 150.46875 336.972656 153.464844 C 336.320312 154.960938 335.753906 156.238281 335.347656 157.140625 C 335.148438 157.59375 334.988281 157.949219 334.878906 158.191406 C 334.765625 158.4375 334.707031 158.5625 334.707031 158.5625 L 337.429688 159.804688 L 337.816406 156.835938 L 337.429688 159.804688 L 340.15625 161.046875 C 340.164062 161.03125 342.527344 155.835938 344.902344 150.136719 C 346.09375 147.285156 347.285156 144.3125 348.199219 141.761719 C 348.65625 140.484375 349.046875 139.316406 349.332031 138.28125 C 349.476562 137.765625 349.597656 137.285156 349.6875 136.8125 C 349.777344 136.339844 349.839844 135.898438 349.847656 135.355469 C 349.847656 135.140625 349.835938 134.902344 349.789062 134.617188 C 349.738281 134.328125 349.65625 133.984375 349.449219 133.570312 L 349.449219 133.566406 C 349.0625 132.804688 348.527344 132.164062 347.9375 131.65625 C 347.046875 130.886719 346.039062 130.390625 344.992188 130.0625 C 343.945312 129.738281 342.855469 129.589844 341.75 129.589844 C 340.183594 129.59375 338.582031 129.890625 337.0625 130.558594 C 335.550781 131.222656 334.101562 132.285156 333.054688 133.828125 C 331.597656 135.992188 330.066406 138.472656 328.683594 140.976562 C 327.300781 143.480469 326.070312 145.992188 325.210938 148.277344 C 324.726562 149.578125 324.476562 150.855469 324.476562 152.09375 C 324.476562 153.28125 324.71875 154.421875 325.136719 155.425781 C 325.882812 157.195312 327.121094 158.5 328.40625 159.453125 C 330.34375 160.886719 332.445312 161.652344 334.09375 162.132812 C 335.738281 162.605469 336.945312 162.761719 337.046875 162.777344 C 338.34375 162.945312 339.609375 162.242188 340.15625 161.046875 L 337.429688 159.804688 "/>
<path style=" stroke:none;fill-rule:nonzero;fill:rgb(3.138733%,6.669617%,8.239746%);fill-opacity:1;" d="M 369.625 75.472656 L 369.300781 72.496094 L 369.425781 73.667969 L 369.328125 72.492188 L 369.300781 72.496094 L 369.425781 73.667969 L 369.328125 72.492188 C 369.316406 72.492188 369.203125 72.503906 369.023438 72.503906 C 368.753906 72.503906 368.34375 72.480469 367.929688 72.394531 C 367.621094 72.335938 367.3125 72.238281 367.054688 72.117188 C 366.664062 71.933594 366.414062 71.730469 366.207031 71.417969 C 366.003906 71.101562 365.777344 70.589844 365.773438 69.507812 C 365.773438 69.296875 365.78125 69.074219 365.804688 68.828125 L 365.804688 68.820312 C 365.953125 67.15625 366.21875 65.59375 366.570312 63.917969 C 366.921875 62.242188 367.359375 60.457031 367.824219 58.40625 L 367.246094 58.273438 L 367.675781 58.695312 C 367.707031 58.675781 367.804688 58.527344 367.824219 58.40625 L 367.246094 58.273438 L 367.675781 58.695312 L 367.601562 58.621094 L 367.671875 58.703125 L 367.675781 58.695312 L 367.601562 58.621094 L 367.671875 58.703125 C 367.667969 58.695312 367.890625 58.550781 368.246094 58.457031 C 368.597656 58.355469 369.058594 58.300781 369.449219 58.300781 C 369.726562 58.300781 369.976562 58.332031 370.070312 58.351562 L 370.109375 58.363281 L 370.515625 56.984375 L 369.628906 58.082031 C 369.996094 58.363281 370.109375 58.351562 370.109375 58.363281 L 370.515625 56.984375 L 369.628906 58.082031 L 369.625 58.078125 L 371.230469 56.089844 L 369.085938 57.476562 C 369.1875 57.640625 369.351562 57.855469 369.625 58.078125 L 371.230469 56.089844 L 369.085938 57.476562 L 370.660156 56.460938 L 368.847656 56.972656 C 368.867188 57.035156 368.902344 57.183594 369.085938 57.476562 L 370.660156 56.460938 L 368.847656 56.972656 L 369.417969 56.8125 L 368.835938 56.9375 L 368.847656 56.972656 L 369.417969 56.8125 L 368.835938 56.9375 L 368.847656 57.003906 C 368.867188 57.144531 368.886719 57.457031 368.886719 57.859375 C 368.890625 58.933594 368.757812 60.613281 368.550781 62.441406 C 368.246094 65.203125 367.773438 68.34375 367.382812 70.777344 C 367.1875 71.996094 367.011719 73.042969 366.882812 73.777344 C 366.820312 74.148438 366.765625 74.441406 366.734375 74.640625 C 366.699219 74.839844 366.679688 74.941406 366.679688 74.941406 L 369.625 75.472656 L 369.300781 72.496094 L 369.625 75.472656 L 372.566406 76.007812 C 372.570312 75.988281 373.140625 72.84375 373.710938 69.035156 C 373.992188 67.128906 374.285156 65.058594 374.496094 63.109375 C 374.71875 61.15625 374.867188 59.351562 374.871094 57.859375 C 374.867188 57.199219 374.84375 56.601562 374.742188 55.972656 C 374.6875 55.652344 374.621094 55.324219 374.460938 54.914062 C 374.382812 54.710938 374.277344 54.484375 374.117188 54.234375 C 373.953125 53.980469 373.730469 53.695312 373.394531 53.421875 L 373.386719 53.417969 C 372.972656 53.085938 372.613281 52.917969 372.277344 52.777344 C 371.78125 52.585938 371.328125 52.484375 370.863281 52.410156 C 370.402344 52.34375 369.933594 52.308594 369.449219 52.308594 C 368.1875 52.316406 366.820312 52.503906 365.425781 53.121094 C 364.730469 53.433594 364.023438 53.871094 363.382812 54.519531 C 362.75 55.167969 362.214844 56.0625 361.988281 57.082031 C 361.539062 59.066406 361.097656 60.871094 360.710938 62.683594 C 360.332031 64.492188 360.015625 66.320312 359.84375 68.296875 L 359.84375 68.289062 C 359.808594 68.707031 359.789062 69.117188 359.789062 69.507812 C 359.785156 71.292969 360.171875 72.902344 360.90625 74.214844 C 361.453125 75.203125 362.179688 76.003906 362.953125 76.597656 C 364.121094 77.496094 365.351562 77.945312 366.410156 78.199219 C 367.472656 78.445312 368.386719 78.492188 369.023438 78.496094 C 369.527344 78.496094 369.859375 78.460938 369.945312 78.453125 C 371.269531 78.308594 372.332031 77.316406 372.566406 76.007812 L 369.625 75.472656 "/>
<g clip-path="url(#clip2)" clip-rule="nonzero">
<path style=" stroke:none;fill-rule:nonzero;fill:rgb(3.138733%,6.669617%,8.239746%);fill-opacity:1;" d="M 326.628906 62.226562 L 325.140625 59.628906 C 325.050781 59.675781 324.65625 59.875 324.144531 60.042969 C 323.636719 60.214844 323.007812 60.347656 322.480469 60.34375 C 322.210938 60.34375 321.964844 60.3125 321.757812 60.253906 C 321.4375 60.160156 321.195312 60.039062 320.890625 59.742188 C 320.597656 59.445312 320.222656 58.925781 319.890625 57.957031 C 319.308594 56.257812 318.625 54.191406 318.03125 52.078125 C 317.433594 49.964844 316.929688 47.792969 316.6875 45.964844 L 316.6875 45.957031 C 316.660156 45.753906 316.644531 45.574219 316.644531 45.417969 C 316.652344 44.945312 316.734375 44.703125 316.816406 44.535156 C 316.886719 44.40625 316.960938 44.308594 317.0625 44.210938 C 317.214844 44.070312 317.441406 43.933594 317.6875 43.847656 C 317.921875 43.757812 318.179688 43.730469 318.207031 43.734375 L 318.207031 43.339844 L 318.160156 43.730469 L 318.207031 43.734375 L 318.207031 43.339844 L 318.160156 43.730469 L 318.316406 42.34375 L 317.957031 43.691406 C 318.0625 43.71875 318.125 43.726562 318.160156 43.730469 L 318.316406 42.34375 L 317.957031 43.691406 L 317.953125 43.6875 L 318.601562 41.273438 L 317 43.203125 C 317.152344 43.324219 317.414062 43.535156 317.953125 43.6875 L 318.601562 41.273438 L 317 43.203125 L 317.972656 42.03125 L 316.785156 42.996094 C 316.804688 43.015625 316.855469 43.078125 317 43.203125 L 317.972656 42.03125 L 316.785156 42.996094 L 317.058594 42.773438 L 316.777344 42.984375 L 316.785156 42.996094 L 317.058594 42.773438 L 316.777344 42.984375 C 316.777344 42.984375 316.871094 43.113281 316.984375 43.324219 C 317.199219 43.71875 317.503906 44.371094 317.828125 45.167969 C 319 47.980469 320.507812 52.507812 321.691406 56.269531 C 322.28125 58.152344 322.800781 59.855469 323.167969 61.085938 C 323.351562 61.699219 323.5 62.195312 323.597656 62.539062 C 323.699219 62.878906 323.753906 63.0625 323.753906 63.0625 L 326.628906 62.226562 L 325.140625 59.628906 L 326.628906 62.226562 L 329.503906 61.390625 C 329.496094 61.371094 327.972656 56.117188 326.203125 50.753906 C 325.316406 48.070312 324.375 45.367188 323.503906 43.21875 C 323.0625 42.140625 322.648438 41.210938 322.210938 40.410156 C 321.988281 40.007812 321.769531 39.636719 321.449219 39.238281 C 321.289062 39.042969 321.101562 38.828125 320.820312 38.59375 C 320.542969 38.367188 320.160156 38.085938 319.503906 37.902344 L 319.5 37.898438 C 319.011719 37.773438 318.609375 37.742188 318.207031 37.742188 C 317.46875 37.742188 316.730469 37.859375 315.945312 38.109375 C 314.78125 38.484375 313.484375 39.175781 312.421875 40.417969 C 311.894531 41.03125 311.4375 41.785156 311.132812 42.632812 C 310.820312 43.488281 310.664062 44.429688 310.664062 45.417969 C 310.664062 45.855469 310.691406 46.304688 310.753906 46.753906 C 311.058594 49.027344 311.628906 51.417969 312.269531 53.703125 C 312.914062 55.984375 313.632812 58.152344 314.230469 59.90625 C 314.609375 61.011719 315.097656 61.984375 315.691406 62.824219 C 316.578125 64.089844 317.738281 65.03125 318.949219 65.585938 C 320.167969 66.148438 321.394531 66.335938 322.480469 66.335938 C 324.085938 66.332031 325.429688 65.953125 326.410156 65.597656 C 327.390625 65.238281 328.007812 64.886719 328.117188 64.828125 C 329.316406 64.136719 329.886719 62.722656 329.503906 61.390625 L 326.628906 62.226562 "/>
</g>
<path style=" stroke:none;fill-rule:nonzero;fill:rgb(3.138733%,6.669617%,8.239746%);fill-opacity:1;" d="M 292.347656 87.910156 L 289.9375 86.140625 L 290.929688 86.867188 L 289.953125 86.117188 L 289.9375 86.140625 L 290.929688 86.867188 L 289.953125 86.117188 C 289.949219 86.132812 289.554688 86.617188 289.046875 87.003906 C 288.792969 87.195312 288.515625 87.363281 288.277344 87.464844 C 288.027344 87.566406 287.828125 87.605469 287.652344 87.605469 C 287.460938 87.601562 287.273438 87.578125 286.925781 87.390625 C 286.585938 87.199219 286.082031 86.808594 285.472656 86.03125 C 284.484375 84.773438 283.421875 83.101562 282.390625 81.296875 C 281.355469 79.488281 280.351562 77.550781 279.429688 75.722656 C 279.007812 74.886719 278.898438 74.226562 278.894531 73.6875 C 278.890625 72.996094 279.109375 72.464844 279.3125 72.164062 L 279.4375 72 L 279.476562 71.957031 L 279.035156 71.433594 L 279.332031 72.046875 C 279.445312 71.988281 279.476562 71.957031 279.476562 71.957031 L 279.035156 71.433594 L 279.332031 72.046875 L 278.523438 70.390625 L 278.652344 72.21875 C 279.019531 72.1875 279.222656 72.097656 279.332031 72.046875 L 278.523438 70.390625 L 278.652344 72.21875 L 278.660156 72.214844 L 278.460938 69.484375 L 278.460938 72.226562 L 278.660156 72.214844 L 278.460938 69.484375 L 278.460938 72.226562 L 278.460938 69.757812 L 277.457031 72.023438 C 277.625 72.089844 277.917969 72.21875 278.460938 72.226562 L 278.460938 69.757812 L 277.457031 72.023438 L 278.039062 70.710938 L 277.21875 71.890625 C 277.234375 71.902344 277.292969 71.945312 277.457031 72.023438 L 278.039062 70.710938 L 277.21875 71.890625 L 277.347656 71.707031 L 277.210938 71.890625 L 277.21875 71.890625 L 277.347656 71.707031 L 277.210938 71.890625 C 277.21875 71.890625 277.351562 72 277.523438 72.175781 C 277.851562 72.503906 278.34375 73.0625 278.898438 73.746094 C 279.871094 74.953125 281.058594 76.5625 282.277344 78.277344 C 284.105469 80.851562 285.996094 83.671875 287.429688 85.84375 C 288.148438 86.929688 288.75 87.851562 289.171875 88.5 C 289.382812 88.824219 289.546875 89.085938 289.660156 89.257812 C 289.773438 89.433594 289.828125 89.527344 289.828125 89.527344 L 292.347656 87.910156 L 289.9375 86.140625 L 292.347656 87.910156 L 294.871094 86.296875 C 294.859375 86.277344 291.863281 81.589844 288.59375 76.863281 C 286.957031 74.496094 285.261719 72.128906 283.789062 70.28125 C 283.050781 69.355469 282.378906 68.558594 281.726562 67.90625 C 281.390625 67.574219 281.074219 67.28125 280.65625 66.984375 C 280.445312 66.839844 280.210938 66.691406 279.882812 66.542969 C 279.554688 66.402344 279.125 66.238281 278.460938 66.230469 L 278.21875 66.242188 L 278.226562 66.238281 C 277.667969 66.285156 277.222656 66.425781 276.839844 66.601562 C 276.167969 66.902344 275.667969 67.300781 275.214844 67.753906 C 274.539062 68.433594 273.988281 69.269531 273.574219 70.269531 C 273.167969 71.261719 272.910156 72.421875 272.910156 73.6875 C 272.90625 75.183594 273.273438 76.8125 274.085938 78.417969 C 275.027344 80.292969 276.074219 82.320312 277.195312 84.277344 C 278.316406 86.234375 279.5 88.113281 280.765625 89.730469 C 281.753906 90.992188 282.832031 91.964844 284.011719 92.625 C 285.191406 93.289062 286.46875 93.605469 287.652344 93.597656 C 288.832031 93.597656 289.878906 93.308594 290.75 92.921875 C 292.058594 92.335938 293 91.554688 293.660156 90.921875 C 294.316406 90.28125 294.691406 89.78125 294.765625 89.679688 C 295.496094 88.683594 295.539062 87.335938 294.871094 86.296875 L 292.347656 87.910156 "/>
<path style=" stroke:none;fill-rule:nonzero;fill:rgb(3.138733%,6.669617%,8.239746%);fill-opacity:1;" d="M 277.121094 120.324219 L 279.367188 118.34375 L 272.0625 110.03125 C 271.273438 109.136719 270.042969 108.792969 268.910156 109.15625 C 268.660156 109.242188 267.820312 109.511719 266.863281 110.367188 C 266.390625 110.796875 265.894531 111.390625 265.53125 112.15625 C 265.160156 112.921875 264.941406 113.851562 264.941406 114.832031 C 264.941406 115.828125 265.160156 116.871094 265.570312 117.945312 C 265.988281 119.019531 266.601562 120.140625 267.449219 121.351562 C 268.382812 122.6875 269.339844 123.703125 270.425781 124.445312 C 271.496094 125.179688 272.753906 125.609375 273.964844 125.601562 C 275.042969 125.605469 276 125.28125 276.738281 124.875 C 277.847656 124.253906 278.539062 123.480469 279.011719 122.878906 C 279.480469 122.269531 279.726562 121.804688 279.785156 121.691406 C 280.34375 120.597656 280.179688 119.265625 279.367188 118.34375 L 277.121094 120.324219 L 274.460938 118.953125 L 275.988281 119.738281 L 274.476562 118.921875 L 274.460938 118.953125 L 275.988281 119.738281 L 274.476562 118.921875 L 274.632812 119.003906 L 274.476562 118.917969 L 274.476562 118.921875 L 274.632812 119.003906 L 274.476562 118.917969 C 274.476562 118.933594 274.265625 119.269531 274.058594 119.464844 L 273.847656 119.628906 L 273.84375 119.628906 L 273.917969 119.800781 L 273.878906 119.617188 L 273.84375 119.628906 L 273.917969 119.800781 L 273.878906 119.617188 L 273.964844 120.003906 L 273.964844 119.609375 L 273.878906 119.617188 L 273.964844 120.003906 L 273.964844 119.609375 L 273.964844 119.917969 L 274.015625 119.613281 L 273.964844 119.609375 L 273.964844 119.917969 L 274.015625 119.613281 L 273.992188 119.75 L 274.027344 119.613281 L 274.015625 119.613281 L 273.992188 119.75 L 274.027344 119.613281 L 273.9375 119.578125 C 273.734375 119.480469 273.136719 119.050781 272.351562 117.917969 L 272.351562 117.914062 C 271.722656 117.011719 271.351562 116.296875 271.15625 115.785156 C 270.953125 115.265625 270.925781 114.964844 270.925781 114.832031 L 270.9375 114.726562 L 270.742188 114.664062 L 270.902344 114.789062 L 270.9375 114.726562 L 270.742188 114.664062 L 270.902344 114.789062 L 270.820312 114.726562 L 270.886719 114.804688 L 270.902344 114.789062 L 270.820312 114.726562 L 270.886719 114.804688 L 270.890625 114.800781 L 270.410156 113.886719 L 270.722656 114.863281 C 270.855469 114.824219 270.886719 114.804688 270.890625 114.800781 L 270.410156 113.886719 L 270.722656 114.863281 L 269.816406 112.011719 L 267.570312 113.988281 L 274.878906 122.300781 L 277.121094 120.324219 L 274.460938 118.953125 L 277.121094 120.324219 "/>
<g clip-path="url(#clip3)" clip-rule="nonzero">
<path style=" stroke:none;fill-rule:nonzero;fill:rgb(0%,0%,0%);fill-opacity:1;" d="M 187.765625 61.011719 C 152.746094 61.011719 124.253906 89.503906 124.253906 124.523438 C 124.253906 159.539062 152.746094 188.03125 187.765625 188.03125 C 222.785156 188.03125 251.277344 159.539062 251.277344 124.523438 C 251.277344 89.503906 222.785156 61.011719 187.765625 61.011719 Z M 235.46875 162.660156 C 229.511719 159.34375 222.214844 156.714844 214.0625 154.914062 C 216.308594 146.214844 217.613281 136.277344 217.707031 125.71875 L 248.847656 125.71875 C 248.578125 139.671875 243.617188 152.488281 235.46875 162.660156 Z M 139.554688 162.011719 C 131.710938 151.945312 126.945312 139.375 126.683594 125.71875 L 157.824219 125.71875 C 157.917969 136.148438 159.191406 145.972656 161.390625 154.601562 C 153.148438 156.292969 145.679688 158.789062 139.578125 161.992188 C 139.566406 161.996094 139.5625 162.007812 139.554688 162.011719 Z M 140.378906 87.21875 C 146.171875 90.519531 153.304688 93.140625 161.257812 94.980469 C 159.140625 103.480469 157.910156 113.109375 157.820312 123.324219 L 126.683594 123.324219 C 126.953125 109.476562 131.84375 96.753906 139.878906 86.621094 C 139.976562 86.863281 140.136719 87.078125 140.378906 87.21875 Z M 189.441406 95.664062 C 189.28125 95.664062 189.125 95.652344 188.964844 95.652344 L 188.964844 63.476562 C 198.597656 64.394531 206.960938 76.328125 211.558594 93.730469 C 204.570312 94.972656 197.101562 95.664062 189.441406 95.664062 Z M 212.144531 96.058594 C 214.09375 104.230469 215.226562 113.496094 215.3125 123.324219 L 188.964844 123.324219 L 188.964844 98.054688 C 189.121094 98.054688 189.28125 98.0625 189.441406 98.0625 C 197.296875 98.0625 204.964844 97.34375 212.144531 96.058594 Z M 186.566406 95.589844 C 178.707031 95.421875 171.117188 94.59375 164.125 93.144531 C 168.757812 76.058594 177.042969 64.382812 186.566406 63.476562 Z M 186.566406 98.023438 L 186.566406 123.324219 L 160.21875 123.324219 C 160.308594 113.265625 161.488281 103.792969 163.523438 95.480469 C 170.710938 96.980469 178.503906 97.855469 186.566406 98.023438 Z M 160.21875 125.71875 L 186.566406 125.71875 L 186.566406 152.09375 C 178.640625 152.117188 170.90625 152.855469 163.683594 154.1875 C 161.550781 145.726562 160.308594 136.03125 160.21875 125.71875 Z M 186.566406 154.492188 L 186.566406 185.566406 C 177.15625 184.667969 168.953125 173.261719 164.292969 156.507812 C 171.316406 155.226562 178.84375 154.511719 186.566406 154.492188 Z M 188.964844 154.53125 C 196.722656 154.648438 204.210938 155.429688 211.15625 156.792969 C 206.480469 173.386719 198.324219 184.675781 188.964844 185.566406 Z M 188.964844 152.136719 L 188.964844 125.71875 L 215.3125 125.71875 C 215.222656 136.152344 213.949219 145.949219 211.773438 154.480469 C 204.628906 153.058594 196.929688 152.253906 188.964844 152.136719 Z M 217.710938 123.324219 C 217.621094 113.371094 216.449219 103.976562 214.433594 95.644531 C 222.886719 93.949219 230.558594 91.425781 236.792969 88.152344 C 236.808594 88.144531 236.816406 88.132812 236.828125 88.125 C 244.171875 98 248.59375 110.160156 248.851562 123.324219 Z M 235.324219 86.199219 C 229.3125 89.300781 221.960938 91.707031 213.84375 93.320312 C 210.179688 79.601562 204.179688 69.046875 196.992188 64.105469 C 212.40625 66.449219 225.941406 74.582031 235.324219 86.199219 Z M 178.542969 64.105469 C 171.472656 68.96875 165.550781 79.257812 161.867188 92.652344 C 154.128906 90.867188 147.179688 88.339844 141.566406 85.140625 C 141.449219 85.070312 141.320312 85.039062 141.195312 85.015625 C 150.527344 74.03125 163.65625 66.367188 178.542969 64.105469 Z M 141.097656 163.917969 C 146.976562 160.894531 154.117188 158.523438 162.011719 156.917969 C 165.703125 170.050781 171.566406 180.136719 178.542969 184.933594 C 163.605469 182.667969 150.4375 174.964844 141.097656 163.917969 Z M 196.992188 184.9375 C 203.914062 180.179688 209.742188 170.214844 213.4375 157.226562 C 221.21875 158.9375 228.171875 161.425781 233.890625 164.546875 C 224.585938 175.25 211.640625 182.710938 196.992188 184.9375 Z M 196.992188 184.9375 "/>
</g>
</g>
</svg>
