<?xml version="1.0" encoding="UTF-8"?>
<svg xmlns="http://www.w3.org/2000/svg" xmlns:xlink="http://www.w3.org/1999/xlink"  viewBox="0 0 375 374.999991" version="1.2">
<defs>
<clipPath id="clip1">
  <path d="M 192 123 L 362.859375 123 L 362.859375 375 L 192 375 Z M 192 123 "/>
</clipPath>
</defs>
<g id="surface1">
<g clip-path="url(#clip1)" clip-rule="nonzero">
<path style=" stroke:none;fill-rule:nonzero;fill:rgb(0%,0%,0%);fill-opacity:1;" d="M 332.125 287.167969 L 282.828125 186.855469 C 282.664062 186.527344 282.46875 186.226562 282.242188 185.957031 L 229.074219 125.558594 C 228.03125 124.367188 226.5625 123.648438 224.984375 123.542969 C 223.445312 123.476562 221.859375 123.96875 220.660156 125.023438 C 220.210938 125.414062 219.378906 126.558594 219.144531 127.113281 C 214.089844 138.699219 215.707031 152.136719 223.371094 162.1875 L 224.113281 163.167969 L 201.320312 152.234375 C 198.339844 150.824219 194.800781 152.089844 193.386719 155.019531 C 193.125 155.558594 192.808594 156.945312 192.808594 157.558594 C 192.6875 170.191406 199.433594 181.929688 210.402344 188.1875 L 258.664062 215.695312 L 266.007812 274.21875 C 264.925781 273.519531 263.902344 272.703125 262.964844 271.796875 L 236.941406 246.746094 C 228.28125 238.417969 215.167969 236.253906 204.324219 241.355469 C 203.335938 241.820312 202.070312 243.226562 201.703125 244.246094 C 201.335938 245.265625 201.417969 247.160156 201.882812 248.15625 C 202.023438 248.441406 202.339844 248.957031 202.550781 249.210938 L 245.992188 302.09375 C 247.3125 303.703125 248.878906 305.058594 250.675781 306.144531 L 308.46875 340.765625 L 326.382812 372.273438 C 327.132812 373.597656 328.519531 374.347656 329.941406 374.347656 C 330.609375 374.347656 331.308594 374.175781 331.945312 373.824219 C 333.90625 372.707031 334.589844 370.207031 333.480469 368.257812 L 315.039062 335.800781 C 314.695312 335.179688 314.191406 334.664062 313.578125 334.3125 L 254.871094 299.132812 C 253.890625 298.542969 253.027344 297.808594 252.316406 296.917969 L 211.546875 247.414062 C 218.480469 245.691406 226.023438 247.578125 231.292969 252.648438 L 257.308594 277.683594 C 260.835938 281.078125 265.203125 283.519531 269.933594 284.746094 C 271.257812 285.078125 272.636719 284.746094 273.65625 283.855469 C 274.667969 282.964844 275.183594 281.625 275.011719 280.277344 L 265.550781 205.023438 C 265.460938 204.304688 265.183594 203.632812 264.753906 203.046875 L 229.867188 157.234375 C 224.734375 150.488281 223.140625 141.75 225.417969 133.75 L 275.753906 190.945312 L 325.066406 291.300781 C 325.238281 291.652344 325.46875 291.988281 325.738281 292.273438 L 355.351562 324.230469 C 356.886719 325.886719 359.464844 325.96875 361.121094 324.449219 C 362.777344 322.90625 362.875 320.335938 361.339844 318.679688 Z M 201.171875 161.226562 L 234.992188 177.433594 L 255.644531 204.566406 L 214.449219 181.089844 C 207.074219 176.910156 202.203125 169.488281 201.171875 161.226562 Z M 201.171875 161.226562 "/>
</g>
<path style=" stroke:none;fill-rule:nonzero;fill:rgb(0%,0%,0%);fill-opacity:1;" d="M 164.410156 188.429688 L 116.148438 160.921875 L 108.796875 102.414062 C 109.886719 103.113281 110.910156 103.921875 111.839844 104.820312 L 137.863281 129.878906 C 146.511719 138.207031 159.628906 140.378906 170.503906 135.261719 C 173.027344 134.058594 174.113281 131.023438 172.921875 128.484375 C 172.78125 128.179688 172.464844 127.683594 172.253906 127.429688 L 128.804688 74.539062 C 127.476562 72.929688 125.917969 71.574219 124.136719 70.503906 L 66.34375 35.882812 L 48.429688 4.367188 C 47.296875 2.398438 44.800781 1.714844 42.855469 2.832031 C 40.890625 3.941406 40.214844 6.441406 41.324219 8.402344 L 59.765625 40.855469 C 60.117188 41.46875 60.613281 41.976562 61.226562 42.34375 L 119.933594 77.527344 C 120.914062 78.105469 121.785156 78.855469 122.496094 79.738281 L 163.265625 129.226562 C 156.332031 130.972656 148.78125 129.078125 143.519531 124.007812 L 117.496094 98.949219 C 113.96875 95.554688 109.601562 93.121094 104.878906 91.894531 C 103.5625 91.570312 102.183594 91.894531 101.15625 92.785156 C 100.144531 93.675781 99.640625 95.015625 99.800781 96.363281 L 109.253906 171.609375 C 109.34375 172.320312 109.621094 173 110.050781 173.578125 L 144.9375 219.402344 C 150.0625 226.128906 151.644531 234.855469 149.378906 242.875 L 99.050781 185.695312 L 49.746094 85.324219 C 49.574219 84.972656 49.34375 84.644531 49.074219 84.351562 L 19.460938 52.402344 C 17.917969 50.738281 15.339844 50.648438 13.691406 52.183594 C 12.035156 53.71875 11.945312 56.304688 13.472656 57.953125 L 42.6875 89.464844 L 91.984375 189.769531 C 92.148438 190.097656 92.34375 190.398438 92.578125 190.667969 L 145.738281 251.0625 C 146.789062 252.257812 148.242188 252.976562 149.828125 253.074219 C 149.957031 253.089844 150.085938 253.089844 150.210938 253.089844 C 151.671875 253.089844 153.050781 252.566406 154.144531 251.585938 C 154.59375 251.203125 155.425781 250.050781 155.660156 249.511719 C 160.710938 237.933594 159.089844 224.480469 151.441406 214.429688 L 150.699219 213.457031 L 173.492188 224.382812 C 174.308594 224.765625 175.183594 224.953125 176.046875 224.953125 C 176.714844 224.953125 177.386719 224.839844 178.03125 224.617188 C 179.53125 224.09375 180.730469 223.007812 181.425781 221.554688 C 181.675781 221.035156 182.003906 219.644531 182.003906 219.050781 C 182.125 206.417969 175.371094 194.675781 164.410156 188.429688 Z M 139.839844 199.207031 L 119.167969 172.050781 L 160.371094 195.527344 C 167.730469 199.722656 172.609375 207.136719 173.648438 215.417969 Z M 139.839844 199.207031 "/>
</g>
</svg>
