<?xml version="1.0" encoding="UTF-8"?>
<svg xmlns="http://www.w3.org/2000/svg" xmlns:xlink="http://www.w3.org/1999/xlink"  viewBox="0 0 375 374.999991" version="1.2">
<g id="surface1">
<path style=" stroke:none;fill-rule:nonzero;fill:rgb(0%,0%,0%);fill-opacity:1;" d="M 36.820312 131.800781 C 38.371094 131.800781 39.855469 131.183594 40.953125 130.085938 L 50.464844 120.5625 L 78.183594 148.3125 L 81.042969 166.285156 C 81.496094 169.160156 83.984375 171.214844 86.804688 171.214844 C 87.109375 171.214844 87.417969 171.191406 87.730469 171.140625 C 90.917969 170.636719 93.09375 167.636719 92.585938 164.445312 L 89.429688 144.601562 C 89.238281 143.382812 88.664062 142.257812 87.792969 141.382812 L 58.730469 112.289062 L 107.96875 63.003906 L 136.109375 91.167969 C 137.128906 92.1875 138.488281 92.796875 139.925781 92.875 L 163.089844 94.117188 C 163.195312 94.125 163.300781 94.125 163.40625 94.125 C 166.488281 94.125 169.070312 91.707031 169.234375 88.585938 C 169.410156 85.363281 166.933594 82.605469 163.714844 82.433594 L 142.789062 81.3125 L 116.234375 54.726562 L 130.132812 40.816406 C 132.417969 38.53125 132.417969 34.828125 130.132812 32.542969 L 99.917969 2.300781 C 97.636719 0.015625 93.933594 0.015625 91.652344 2.300781 C 89.371094 4.585938 89.371094 8.285156 91.652344 10.570312 L 117.734375 36.679688 L 36.820312 117.675781 L 10.738281 91.570312 C 8.453125 89.285156 4.753906 89.285156 2.472656 91.570312 C 0.191406 93.851562 0.191406 97.558594 2.472656 99.84375 L 32.6875 130.085938 C 33.785156 131.183594 35.265625 131.800781 36.820312 131.800781 "/>
<path style=" stroke:none;fill-rule:nonzero;fill:rgb(0%,0%,0%);fill-opacity:1;" d="M 168.253906 109.269531 C 169.371094 110.269531 170.765625 110.765625 172.15625 110.765625 C 173.757812 110.765625 175.351562 110.109375 176.507812 108.824219 L 188.949219 94.9375 L 224.082031 89.34375 C 225.296875 89.148438 226.421875 88.574219 227.292969 87.703125 L 256.355469 58.613281 L 305.597656 107.898438 L 277.457031 136.070312 C 276.40625 137.121094 275.792969 138.535156 275.746094 140.023438 L 274.976562 165.1875 C 274.875 168.417969 277.414062 171.113281 280.636719 171.214844 C 280.699219 171.214844 280.761719 171.214844 280.820312 171.214844 C 283.964844 171.214844 286.5625 168.714844 286.660156 165.542969 L 287.363281 142.703125 L 313.859375 116.171875 L 327.757812 130.085938 C 328.855469 131.183594 330.339844 131.800781 331.890625 131.800781 C 333.441406 131.800781 334.925781 131.183594 336.027344 130.085938 L 366.238281 99.84375 C 368.519531 97.558594 368.519531 93.851562 366.238281 91.570312 C 363.953125 89.285156 360.257812 89.285156 357.972656 91.570312 L 331.890625 117.675781 L 250.976562 36.679688 L 277.058594 10.570312 C 279.339844 8.285156 279.339844 4.585938 277.058594 2.300781 C 274.773438 0.015625 271.074219 0.015625 268.792969 2.300781 L 238.578125 32.542969 C 236.292969 34.828125 236.292969 38.53125 238.578125 40.816406 L 248.089844 50.335938 L 220.367188 78.085938 L 185.066406 83.707031 C 183.742188 83.917969 182.527344 84.578125 181.632812 85.578125 L 167.804688 101.007812 C 165.652344 103.414062 165.851562 107.113281 168.253906 109.269531 "/>
<path style=" stroke:none;fill-rule:nonzero;fill:rgb(0%,0%,0%);fill-opacity:1;" d="M 161.414062 284.660156 L 151.480469 286.242188 C 150.265625 286.433594 149.140625 287.007812 148.269531 287.878906 L 119.207031 316.972656 L 69.964844 267.683594 L 98.105469 239.515625 C 99.15625 238.464844 99.769531 237.046875 99.816406 235.558594 L 101.269531 188.066406 C 101.335938 185.992188 101.832031 184 102.746094 182.140625 C 104.171875 179.242188 102.980469 175.738281 100.082031 174.308594 C 97.191406 172.882812 93.6875 174.074219 92.257812 176.972656 C 90.605469 180.339844 89.703125 183.949219 89.589844 187.707031 L 88.199219 232.882812 L 61.703125 259.414062 L 47.804688 245.496094 C 46.707031 244.402344 45.222656 243.785156 43.671875 243.785156 C 42.121094 243.785156 40.636719 244.402344 39.539062 245.496094 L 9.324219 275.742188 C 7.042969 278.027344 7.042969 281.734375 9.324219 284.015625 C 11.609375 286.300781 15.304688 286.300781 17.589844 284.015625 L 43.671875 257.910156 L 124.585938 338.90625 L 98.503906 365.011719 C 96.222656 367.296875 96.222656 371 98.503906 373.285156 C 99.644531 374.429688 101.140625 375 102.636719 375 C 104.132812 375 105.628906 374.429688 106.769531 373.285156 L 136.984375 343.039062 C 139.269531 340.753906 139.269531 337.054688 136.984375 334.769531 L 127.472656 325.246094 L 155.195312 297.5 L 163.25 296.214844 C 166.4375 295.707031 168.609375 292.707031 168.101562 289.515625 C 167.597656 286.328125 164.601562 284.152344 161.414062 284.660156 "/>
<path style=" stroke:none;fill-rule:nonzero;fill:rgb(0%,0%,0%);fill-opacity:1;" d="M 239.453125 284.414062 C 238.402344 283.363281 236.988281 282.75 235.5 282.703125 L 188.050781 281.246094 C 184.378906 281.132812 180.921875 279.640625 178.320312 277.039062 L 133.824219 232.496094 L 144.15625 228.902344 C 151.480469 226.359375 159.753906 228.257812 165.238281 233.746094 L 180.707031 249.230469 C 181.847656 250.371094 183.34375 250.941406 184.839844 250.941406 C 186.335938 250.941406 187.828125 250.371094 188.972656 249.230469 C 191.253906 246.941406 191.253906 243.238281 188.972656 240.953125 L 114.28125 166.1875 C 111.273438 163.179688 111.273438 158.28125 114.28125 155.273438 C 117.289062 152.261719 122.019531 152.433594 125.019531 155.4375 L 168.796875 199.257812 C 169.941406 200.402344 171.433594 200.972656 172.929688 200.972656 C 174.429688 200.972656 175.925781 200.402344 177.0625 199.257812 C 179.347656 196.972656 179.347656 193.269531 177.0625 190.984375 L 133.285156 147.164062 C 130.277344 144.152344 130.277344 139.257812 133.285156 136.25 C 136.292969 133.242188 141.1875 133.238281 144.183594 136.242188 L 155.398438 147.492188 L 187.804688 180.234375 C 188.945312 181.375 190.441406 181.949219 191.9375 181.949219 C 193.429688 181.949219 194.925781 181.375 196.070312 180.234375 C 198.351562 177.949219 198.351562 174.242188 196.070312 171.960938 L 163.5 139.359375 C 160.492188 136.347656 160.492188 131.453125 163.5 128.445312 C 164.957031 126.984375 166.890625 126.183594 168.953125 126.183594 C 171.011719 126.183594 172.949219 126.984375 174.40625 128.441406 L 206.972656 161.042969 C 209.253906 163.328125 212.957031 163.328125 215.238281 161.042969 C 217.523438 158.757812 217.523438 155.054688 215.238281 152.769531 L 197.546875 135.058594 C 194.382812 131.890625 194.554688 126.304688 197.457031 123.398438 C 200.363281 120.492188 205.683594 120.71875 208.851562 123.886719 L 280.515625 195.644531 L 286.132812 230.984375 C 286.324219 232.203125 286.898438 233.328125 287.769531 234.203125 L 316.832031 263.292969 L 267.59375 312.582031 Z M 373.089844 275.742188 L 342.878906 245.496094 C 341.777344 244.402344 340.296875 243.785156 338.742188 243.785156 C 337.191406 243.785156 335.707031 244.402344 334.609375 245.496094 L 325.097656 255.023438 L 297.378906 227.273438 L 291.761719 191.933594 C 291.566406 190.714844 290.996094 189.585938 290.125 188.714844 L 217.113281 115.613281 C 209.414062 107.902344 196.628906 107.679688 189.191406 115.125 C 187.140625 117.179688 185.675781 119.636719 184.789062 122.289062 L 182.671875 120.167969 C 179.007812 116.5 174.136719 114.480469 168.953125 114.480469 C 163.769531 114.480469 158.898438 116.5 155.234375 120.167969 C 153.324219 122.082031 151.910156 124.289062 150.980469 126.640625 C 143.367188 120.433594 132.109375 120.878906 125.019531 127.976562 C 121.316406 131.683594 119.429688 136.535156 119.355469 141.40625 C 114.527344 141.441406 109.722656 143.289062 106.015625 147 C 98.453125 154.570312 98.453125 166.890625 106.015625 174.460938 L 147.765625 216.253906 C 145.253906 216.488281 142.753906 217.007812 140.320312 217.851562 L 129.070312 221.761719 C 125.441406 223.023438 122.765625 226.011719 121.902344 229.757812 C 121.046875 233.503906 122.15625 237.359375 124.867188 240.074219 L 170.058594 285.308594 C 174.769531 290.027344 181.035156 292.738281 187.695312 292.941406 L 232.828125 294.328125 L 259.328125 320.855469 L 245.429688 334.769531 C 243.144531 337.054688 243.144531 340.753906 245.429688 343.039062 L 275.644531 373.285156 C 276.785156 374.429688 278.28125 375 279.777344 375 C 281.273438 375 282.765625 374.429688 283.910156 373.285156 C 286.191406 371 286.191406 367.296875 283.910156 365.011719 L 257.828125 338.90625 L 338.742188 257.910156 L 364.824219 284.015625 C 367.109375 286.300781 370.808594 286.300781 373.089844 284.015625 C 375.371094 281.734375 375.371094 278.027344 373.089844 275.742188 "/>
</g>
</svg>
