<?xml version="1.0" encoding="UTF-8"?>
<svg xmlns="http://www.w3.org/2000/svg" xmlns:xlink="http://www.w3.org/1999/xlink" width="750pt" height="749.999995pt" viewBox="0 0 750 749.999995" version="1.2">
<defs>
	<style type="text/css"><![CDATA[
      path {
    fill: none;
    fill-rule:nonzero;
    stroke: rgb(100%,73.728943%,31.369019%);
    stroke-width: 4;
    stroke-dasharray: 5000;
    stroke-dashoffset: 5000;
    animation: draw 5s linear forwards;
	}

	@keyframes draw {
	  from {
	    stroke-dashoffset: 5000;
	  }

	  to {
	    stroke-dashoffset: 0;
	  }
	}
    ]]></style>
<clipPath id="clip1">
  <path d="M 234.316406 0 L 749.578125 0 L 749.578125 526.667969 L 234.316406 526.667969 Z M 234.316406 0 "/>
</clipPath>
</defs>
<g id="surface1">
<path d="M 225.789062 665.105469 L 152.789062 738.820312 C 150.242188 741.398438 150.265625 745.554688 152.832031 748.105469 C 154.117188 749.367188 155.789062 750 157.457031 750 C 159.144531 750 160.835938 749.34375 162.117188 748.058594 L 235.113281 674.335938 C 237.664062 671.765625 237.640625 667.609375 235.066406 665.058594 C 232.480469 662.507812 228.320312 662.550781 225.789062 665.105469 "/>
<path d="M 182.058594 427.117188 C 179.492188 424.578125 175.324219 424.597656 172.785156 427.1875 C 135.765625 464.746094 98.632812 502.179688 61.460938 539.65625 L 7.824219 593.757812 C 5.277344 596.328125 5.300781 600.480469 7.867188 603.035156 C 9.152344 604.289062 10.824219 604.929688 12.492188 604.929688 C 14.179688 604.929688 15.871094 604.277344 17.148438 602.988281 L 70.773438 548.898438 C 107.957031 511.40625 145.101562 473.957031 182.128906 436.386719 C 184.671875 433.808594 184.644531 429.660156 182.058594 427.117188 "/>
<g clip-path="url(#clip1)" clip-rule="nonzero">
<path d="M 747.644531 147.488281 C 745.050781 144.949219 740.890625 144.972656 738.359375 147.53125 L 600.496094 286.746094 C 575.777344 281.925781 551.058594 277.167969 526.34375 272.410156 C 499.660156 267.273438 472.976562 262.136719 446.273438 256.925781 C 433.191406 254.433594 416.695312 248.390625 412.441406 233.835938 C 407.878906 218.25 418.160156 196.648438 439.9375 176.0625 C 439.957031 176.035156 439.957031 176.003906 439.976562 175.984375 C 440.007812 175.949219 440.046875 175.945312 440.078125 175.910156 L 603.492188 11.171875 C 606.039062 8.605469 606.03125 4.453125 603.453125 1.90625 C 600.886719 -0.644531 596.734375 -0.636719 594.179688 1.941406 L 432.214844 165.226562 C 356.355469 177.675781 278.886719 227.804688 276.117188 300.632812 C 275.128906 326.085938 272.335938 328.722656 250.648438 349.269531 C 246.566406 353.136719 241.886719 357.570312 236.507812 362.832031 C 233.921875 365.378906 233.875 369.53125 236.414062 372.117188 C 238.960938 374.699219 243.097656 374.738281 245.695312 372.214844 C 251.007812 367.003906 255.632812 362.617188 259.675781 358.800781 C 282.019531 337.617188 288.03125 331.941406 289.226562 301.140625 C 291.746094 234.933594 360.992188 195.792969 416.8125 181.785156 C 401.183594 201.398438 395.042969 221.082031 399.839844 237.511719 C 403.222656 249.0625 413.589844 264.03125 443.785156 269.804688 C 470.472656 275.011719 497.171875 280.148438 523.863281 285.285156 C 549.644531 290.246094 575.433594 295.214844 601.246094 300.242188 C 613.222656 302.53125 619.78125 308.828125 620.210938 318.425781 C 620.738281 330.195312 611.292969 345.734375 595.039062 351.085938 L 542.546875 341.90625 C 539.03125 341.316406 535.585938 343.664062 534.960938 347.238281 C 534.335938 350.800781 536.726562 354.199219 540.292969 354.824219 L 591.542969 363.78125 C 592.5 366.222656 592.90625 370.917969 591.0625 377.492188 C 588.152344 387.890625 579.515625 401.433594 564.65625 406.191406 L 522.769531 399.089844 C 519.277344 398.503906 515.816406 400.890625 515.210938 404.472656 C 514.609375 408.039062 517.011719 411.425781 520.589844 412.03125 L 560.882812 418.847656 C 562.570312 422.832031 562.589844 428.125 560.871094 433.808594 C 558.109375 442.957031 550.003906 454.773438 535.460938 461.199219 L 506.953125 456.28125 C 503.394531 455.632812 499.984375 458.066406 499.371094 461.628906 C 498.753906 465.195312 501.148438 468.585938 504.71875 469.207031 L 529.554688 473.496094 C 528.898438 481.941406 525.929688 488.625 520.5625 493.835938 C 500.953125 512.804688 451.957031 509.824219 412.578125 507.394531 C 403.324219 506.835938 394.421875 506.296875 386.269531 506.027344 C 384.640625 506.046875 382.683594 506.671875 381.398438 507.976562 L 374.390625 515.066406 C 371.847656 517.644531 371.871094 521.789062 374.449219 524.335938 C 375.726562 525.597656 377.394531 526.230469 379.054688 526.230469 C 380.75 526.230469 382.441406 525.578125 383.71875 524.277344 L 388.707031 519.246094 C 395.949219 519.523438 403.722656 520.007812 411.777344 520.496094 C 455.917969 523.171875 505.929688 526.257812 529.691406 503.253906 C 537.859375 495.332031 542.253906 484.929688 542.761719 472.265625 C 557.667969 465.046875 568.980469 452.351562 573.441406 437.605469 C 575.679688 430.167969 575.835938 422.878906 573.992188 416.640625 C 590.488281 409.199219 600.082031 393.925781 603.695312 381.023438 C 605.746094 373.703125 605.988281 366.882812 604.527344 361.394531 C 621.890625 353.269531 634.113281 335.390625 633.324219 317.839844 C 632.777344 305.75 626.019531 296.257812 614.792969 290.957031 L 747.683594 156.765625 C 750.234375 154.1875 750.210938 150.039062 747.644531 147.488281 "/>
</g>
<path d="M 190.324219 401.277344 C 190.695312 395.96875 193.082031 391.152344 197.050781 387.722656 C 205.496094 380.59375 217.628906 381.5625 224.777344 389.980469 L 229.347656 395.109375 C 236.421875 403.429688 235.453125 416.007812 227.195312 423.164062 C 223.261719 426.570312 218.257812 428.191406 212.996094 427.8125 C 207.753906 427.402344 203 424.988281 199.617188 421.003906 L 195.121094 415.671875 C 191.65625 411.699219 189.953125 406.589844 190.324219 401.277344 Z M 189.601562 429.472656 C 195.277344 436.152344 203.222656 440.214844 211.996094 440.886719 C 212.855469 440.957031 213.714844 440.988281 214.5625 440.988281 C 222.375 440.988281 229.832031 438.230469 235.785156 433.078125 C 249.453125 421.242188 251.054688 400.402344 239.246094 386.503906 L 234.675781 381.375 C 223.046875 367.675781 202.355469 366.066406 188.546875 377.726562 C 188.527344 377.742188 188.5 377.761719 188.484375 377.78125 C 181.851562 383.515625 177.859375 391.542969 177.238281 400.363281 C 176.621094 409.179688 179.460938 417.675781 185.171875 424.207031 L 189.601562 429.472656 "/>
<path d="M 366.140625 576.671875 C 363.511719 578.992188 360.210938 580.246094 356.574219 579.902344 C 353 579.667969 349.757812 578.027344 347.394531 575.410156 L 320.109375 543.175781 C 319.976562 543.035156 319.828125 542.9375 319.699219 542.800781 L 318.109375 540.917969 C 313.257812 535.117188 313.953125 526.414062 319.664062 521.515625 C 322.414062 519.179688 325.980469 517.960938 329.617188 518.359375 C 333.078125 518.671875 336.1875 520.324219 338.472656 523.144531 L 367.535156 557.207031 C 372.472656 563.074219 371.851562 571.613281 366.140625 576.671875 Z M 337.65625 605.449219 C 334.898438 607.792969 331.359375 608.867188 327.773438 608.613281 C 324.191406 608.308594 320.933594 606.628906 318.585938 603.820312 L 299.765625 581.769531 L 291.527344 572.039062 C 291.421875 571.914062 291.285156 571.828125 291.179688 571.707031 L 289.519531 569.765625 C 284.753906 564.054688 285.484375 555.3125 291.167969 550.292969 C 293.578125 548.171875 296.625 547.03125 299.835938 547.03125 C 300.136719 547.03125 300.441406 547.039062 300.746094 547.050781 C 304.296875 547.285156 307.53125 548.925781 309.898438 551.523438 L 337.207031 583.777344 C 337.332031 583.917969 337.488281 584.015625 337.613281 584.160156 L 339.214844 586.046875 C 343.988281 591.765625 343.25 600.5 337.65625 605.449219 Z M 309.070312 634.296875 C 306.378906 636.574219 302.9375 637.605469 299.339844 637.382812 C 295.765625 637.078125 292.554688 635.421875 290.261719 632.675781 L 261.195312 598.601562 C 256.265625 592.734375 256.84375 584.042969 262.503906 579.230469 C 262.535156 579.207031 262.5625 579.179688 262.59375 579.148438 C 264.996094 577.03125 268.050781 575.886719 271.253906 575.886719 C 271.5625 575.886719 271.859375 575.890625 272.167969 575.910156 C 275.742188 576.144531 278.996094 577.792969 281.359375 580.417969 L 290.484375 591.101562 L 310.632812 614.902344 C 315.484375 620.714844 314.78125 629.40625 309.070312 634.296875 Z M 285.351562 653.710938 C 285.078125 657.335938 283.445312 660.597656 280.742188 662.902344 C 277.910156 665.324219 274.300781 666.53125 270.679688 666.199219 C 267.144531 665.898438 263.96875 664.265625 261.695312 661.550781 L 232.554688 627.128906 C 230.203125 624.40625 229.054688 620.910156 229.328125 617.257812 C 229.601562 613.632812 231.238281 610.378906 233.921875 608.085938 C 233.960938 608.058594 233.984375 608.035156 234.011719 608.007812 C 236.421875 605.886719 239.476562 604.738281 242.679688 604.738281 C 242.980469 604.738281 243.285156 604.753906 243.589844 604.765625 C 247.25 605.011719 250.605469 606.691406 252.988281 609.425781 L 282.128906 643.855469 C 284.480469 646.570312 285.625 650.070312 285.351562 653.710938 Z M 348.566406 514.757812 C 344.144531 509.304688 337.839844 505.9375 330.820312 505.292969 C 323.800781 504.679688 316.578125 506.90625 311.148438 511.53125 C 311.148438 511.542969 311.148438 511.542969 311.132812 511.542969 C 304.425781 517.292969 301.320312 525.734375 301.933594 534.015625 C 301.820312 534.003906 301.722656 533.972656 301.613281 533.964844 C 294.59375 533.542969 287.757812 535.800781 282.488281 540.46875 C 275.910156 546.277344 272.871094 554.679688 273.441406 562.882812 C 273.304688 562.878906 273.175781 562.824219 273.03125 562.820312 C 266.042969 562.414062 259.226562 564.65625 253.953125 569.277344 C 247.257812 575.007812 244.210938 583.449219 244.90625 591.75 C 244.757812 591.738281 244.613281 591.6875 244.457031 591.679688 C 237.46875 591.289062 230.644531 593.507812 225.378906 598.136719 C 220.023438 602.707031 216.78125 609.140625 216.246094 616.269531 C 215.699219 623.429688 217.972656 630.339844 222.589844 635.664062 L 251.660156 669.992188 C 256.167969 675.382812 262.535156 678.679688 269.585938 679.269531 C 270.34375 679.328125 271.089844 679.355469 271.847656 679.355469 C 278.230469 679.355469 284.335938 677.097656 289.261719 672.878906 C 294.640625 668.300781 297.902344 661.835938 298.4375 654.707031 C 298.546875 653.269531 298.460938 651.855469 298.34375 650.449219 C 299.082031 650.515625 299.808594 650.546875 300.539062 650.546875 C 306.808594 650.546875 312.789062 648.359375 317.59375 644.269531 C 324.347656 638.496094 327.453125 630.007812 326.808594 621.6875 C 327.519531 621.746094 328.234375 621.777344 328.945312 621.777344 C 335.269531 621.777344 341.316406 619.558594 346.246094 615.351562 C 352.824219 609.542969 355.867188 601.132812 355.300781 592.921875 C 355.4375 592.9375 355.566406 592.980469 355.710938 592.996094 C 356.308594 593.035156 356.90625 593.054688 357.507812 593.054688 C 363.914062 593.054688 370.003906 590.753906 374.820312 586.496094 C 385.925781 576.699219 387.128906 560.117188 377.558594 548.722656 L 348.566406 514.757812 "/>
<path d="M 402.40625 527.898438 C 398.832031 528.488281 396.410156 531.863281 397.003906 535.429688 C 398.355469 543.605469 392.671875 552.082031 392.621094 552.160156 C 390.570312 555.144531 391.316406 559.210938 394.292969 561.277344 C 395.425781 562.058594 396.730469 562.433594 398.011719 562.433594 C 400.101562 562.433594 402.140625 561.453125 403.417969 559.609375 C 403.78125 559.089844 412.175781 546.777344 409.949219 533.300781 C 409.363281 529.71875 405.941406 527.304688 402.40625 527.898438 "/>
</g>
</svg>
